<svg version="1.1" xmlns="http://www.w3.org/2000/svg" xmlns:xlink="http://www.w3.org/1999/xlink" x="0px" y="0px"
	 viewBox="0 0 750 500" style="enable-background:new 0 0 750 500;" xml:space="preserve">
<!-- <g id="BACKGROUND">
	<rect style="fill:#ffff" width="750" height="500"/>
</g> -->
<g id="OBJECTS">
	<g>
		<polyline style="fill:none;stroke:#0024A8;stroke-width:1.0658;stroke-miterlimit:10;stroke-dasharray:3.1975;" points="
			550.356,111.826 550.356,81.803 231.626,81.803 231.626,95.161 231.626,174.179 178.334,174.179 178.334,274.718 244.608,274.718 
					"/>
		<g>
			<g>
				
					<line style="fill:none;stroke:#0024A8;stroke-width:1.0658;stroke-miterlimit:10;" x1="206.012" y1="335.707" x2="206.012" y2="334.108"/>
				
					<line style="fill:none;stroke:#0024A8;stroke-width:1.0658;stroke-miterlimit:10;stroke-dasharray:3.0243,3.0243;" x1="206.012" y1="331.084" x2="206.012" y2="296.304"/>
				<polyline style="fill:none;stroke:#0024A8;stroke-width:1.0658;stroke-miterlimit:10;" points="206.012,294.791 
					206.012,293.193 204.413,293.193 				"/>
				
					<line style="fill:none;stroke:#0024A8;stroke-width:1.0658;stroke-miterlimit:10;stroke-dasharray:3.0283,3.0283;" x1="201.385" y1="293.193" x2="154.446" y2="293.193"/>
				<polyline style="fill:none;stroke:#0024A8;stroke-width:1.0658;stroke-miterlimit:10;" points="152.932,293.193 
					151.333,293.193 151.333,291.594 				"/>
				
					<line style="fill:none;stroke:#0024A8;stroke-width:1.0658;stroke-miterlimit:10;stroke-dasharray:3.2449,3.2449;" x1="151.333" y1="288.349" x2="151.333" y2="238.053"/>
				<polyline style="fill:none;stroke:#0024A8;stroke-width:1.0658;stroke-miterlimit:10;" points="151.333,236.43 151.333,234.831 
					152.932,234.831 				"/>
				
					<line style="fill:none;stroke:#0024A8;stroke-width:1.0658;stroke-miterlimit:10;stroke-dasharray:3.086,3.086;" x1="156.018" y1="234.831" x2="216.196" y2="234.831"/>
				<polyline style="fill:none;stroke:#0024A8;stroke-width:1.0658;stroke-miterlimit:10;" points="217.739,234.831 
					219.337,234.831 219.337,233.232 				"/>
				
					<line style="fill:none;stroke:#0024A8;stroke-width:1.0658;stroke-miterlimit:10;stroke-dasharray:3.157,3.157;" x1="219.337" y1="230.076" x2="219.337" y2="99.061"/>
				<polyline style="fill:none;stroke:#0024A8;stroke-width:1.0658;stroke-miterlimit:10;" points="219.337,97.482 219.337,95.884 
					220.936,95.884 				"/>
				
					<line style="fill:none;stroke:#0024A8;stroke-width:1.0658;stroke-miterlimit:10;stroke-dasharray:3.2238,3.2238;" x1="224.16" y1="95.884" x2="332.156" y2="95.884"/>
				<polyline style="fill:none;stroke:#0024A8;stroke-width:1.0658;stroke-miterlimit:10;" points="333.767,95.884 335.366,95.884 
					335.366,94.285 				"/>
				
					<line style="fill:none;stroke:#0024A8;stroke-width:1.0658;stroke-miterlimit:10;stroke-dasharray:3.1533,3.1533;" x1="335.366" y1="91.132" x2="335.366" y2="61.175"/>
				<polyline style="fill:none;stroke:#0024A8;stroke-width:1.0658;stroke-miterlimit:10;" points="335.366,59.599 335.366,58 
					336.965,58 				"/>
				
					<line style="fill:none;stroke:#0024A8;stroke-width:1.0658;stroke-miterlimit:10;stroke-dasharray:3.2056,3.2056;" x1="340.171" y1="58" x2="389.857" y2="58"/>
				<polyline style="fill:none;stroke:#0024A8;stroke-width:1.0658;stroke-miterlimit:10;" points="391.46,58 393.059,58 
					393.059,59.599 				"/>
				
					<line style="fill:none;stroke:#0024A8;stroke-width:1.0658;stroke-miterlimit:10;stroke-dasharray:3.3147,3.3147;" x1="393.059" y1="62.913" x2="393.059" y2="94.403"/>
				<polyline style="fill:none;stroke:#0024A8;stroke-width:1.0658;stroke-miterlimit:10;" points="393.059,96.06 393.059,97.659 
					394.657,97.659 				"/>
				
					<line style="fill:none;stroke:#0024A8;stroke-width:1.0658;stroke-miterlimit:10;stroke-dasharray:3.2361,3.2361;" x1="397.893" y1="97.659" x2="448.052" y2="97.659"/>
				<polyline style="fill:none;stroke:#0024A8;stroke-width:1.0658;stroke-miterlimit:10;" points="449.671,97.659 451.269,97.659 
					451.269,99.257 				"/>
				
					<line style="fill:none;stroke:#0024A8;stroke-width:1.0658;stroke-miterlimit:10;stroke-dasharray:3.6565,3.6565;" x1="451.269" y1="102.914" x2="451.269" y2="108.399"/>
				<polyline style="fill:none;stroke:#0024A8;stroke-width:1.0658;stroke-miterlimit:10;" points="451.269,110.227 
					451.269,111.826 452.868,111.826 				"/>
				
					<line style="fill:none;stroke:#0024A8;stroke-width:1.0658;stroke-miterlimit:10;stroke-dasharray:3.0932,3.0932;" x1="455.961" y1="111.826" x2="547.21" y2="111.826"/>
				<polyline style="fill:none;stroke:#0024A8;stroke-width:1.0658;stroke-miterlimit:10;" points="548.757,111.826 
					550.356,111.826 550.356,113.424 				"/>
				
					<line style="fill:none;stroke:#0024A8;stroke-width:1.0658;stroke-miterlimit:10;stroke-dasharray:2.9058,2.9058;" x1="550.356" y1="116.33" x2="550.356" y2="132.312"/>
				<polyline style="fill:none;stroke:#0024A8;stroke-width:1.0658;stroke-miterlimit:10;" points="550.356,133.765 
					550.356,135.364 551.954,135.364 				"/>
				
					<line style="fill:none;stroke:#0024A8;stroke-width:1.0658;stroke-miterlimit:10;stroke-dasharray:3.3663,3.3663;" x1="555.321" y1="135.364" x2="600.766" y2="135.364"/>
				<polyline style="fill:none;stroke:#0024A8;stroke-width:1.0658;stroke-miterlimit:10;" points="602.45,135.364 604.048,135.364 
					604.048,136.963 				"/>
				
					<line style="fill:none;stroke:#0024A8;stroke-width:1.0658;stroke-miterlimit:10;stroke-dasharray:3.2373,3.2373;" x1="604.048" y1="140.2" x2="604.048" y2="183.903"/>
				<polyline style="fill:none;stroke:#0024A8;stroke-width:1.0658;stroke-miterlimit:10;" points="604.048,185.522 
					604.048,187.121 602.45,187.121 				"/>
				
					<line style="fill:none;stroke:#0024A8;stroke-width:1.0658;stroke-miterlimit:10;stroke-dasharray:3.4694,3.4694;" x1="598.98" y1="187.121" x2="566.021" y2="187.121"/>
				<polyline style="fill:none;stroke:#0024A8;stroke-width:1.0658;stroke-miterlimit:10;" points="564.286,187.121 
					562.687,187.121 562.687,188.719 				"/>
				
					<line style="fill:none;stroke:#0024A8;stroke-width:1.0658;stroke-miterlimit:10;stroke-dasharray:3.125,3.125;" x1="562.687" y1="191.844" x2="562.687" y2="309.033"/>
				
					<line style="fill:none;stroke:#0024A8;stroke-width:1.0658;stroke-miterlimit:10;" x1="562.687" y1="310.596" x2="562.687" y2="312.194"/>
			</g>
		</g>
		<g>
			<rect x="182.249" y="409.46" style="fill:#4779F6;" width="414.949" height="15.54"/>
			<polygon style="fill:#072BDB;" points="544.49,354.442 234.958,354.442 182.249,409.46 597.198,409.46 			"/>
		</g>
		<ellipse style="fill:#0024A8;" cx="387.811" cy="382.982" rx="153.127" ry="14.333"/>
		<g>
			<g>
				<g>
					<polygon style="fill:#054DDD;" points="357.133,332.693 350.533,378.484 428.914,378.484 421.489,332.693 					"/>
					<rect x="323.306" y="385.085" style="fill:#054DDD;" width="132.836" height="3.3"/>
					<polygon style="fill:#4779F6;" points="350.533,378.484 323.306,385.085 456.141,385.085 428.914,378.484 					"/>
				</g>
				<g>
					<path style="fill:#130751;" d="M542.851,309.114H236.596V150.287c0-7.005,5.679-12.684,12.684-12.684h280.887
						c7.005,0,12.684,5.679,12.684,12.684V309.114z"/>
					<path style="fill:#4779F6;" d="M530.22,338.469H249.227c-6.976,0-12.631-5.655-12.631-12.631v-16.724h306.255v16.724
						C542.851,332.814,537.196,338.469,530.22,338.469z"/>
					<rect x="247.896" y="147.504" style="fill:#B6CEFF;" width="283.656" height="150.987"/>
					<path style="fill:#130751;" d="M395.705,322.625c0,3.304-2.678,5.982-5.982,5.982c-3.304,0-5.982-2.678-5.982-5.982
						s2.678-5.982,5.982-5.982C393.027,316.643,395.705,319.321,395.705,322.625z"/>
				</g>
				<g>
					<g>
						<rect x="292.615" y="164.738" style="fill:#4779F6;" width="100.443" height="117.241"/>
						<rect x="307.132" y="180.726" style="fill:#E4EAFE;" width="71.41" height="6.395"/>
						<rect x="307.132" y="192.45" style="fill:#E4EAFE;" width="71.41" height="6.395"/>
						<rect x="307.132" y="204.174" style="fill:#E4EAFE;" width="71.41" height="6.395"/>
						<rect x="307.132" y="215.898" style="fill:#E4EAFE;" width="71.41" height="6.395"/>
						<rect x="307.132" y="227.622" style="fill:#E4EAFE;" width="71.41" height="6.395"/>
						<rect x="307.132" y="239.346" style="fill:#E4EAFE;" width="71.41" height="6.395"/>
						<rect x="307.132" y="251.07" style="fill:#E4EAFE;" width="71.41" height="6.395"/>
						<rect x="307.132" y="262.794" style="fill:#E4EAFE;" width="71.41" height="6.395"/>
					</g>
					<g>
						<path style="fill:#130751;" className="animate-spin" d="M460.689,207.265v-10.217h-6.358c-0.537-2.322-1.436-4.506-2.64-6.484l4.53-4.531l-7.224-7.224
							l-4.496,4.495c-1.966-1.226-4.138-2.152-6.453-2.714v-6.412h-10.216v6.359c-2.323,0.536-4.507,1.435-6.485,2.641l-4.532-4.531
							l-7.224,7.224l4.496,4.495c-1.227,1.966-2.152,4.138-2.714,6.453h-6.411v10.216h6.358c0.537,2.322,1.436,4.507,2.642,6.485
							l-4.531,4.53l7.224,7.224l4.496-4.496c1.965,1.227,4.137,2.154,6.452,2.715v6.412h10.217v-6.359
							c2.322-0.537,4.507-1.435,6.484-2.641l4.531,4.531l7.224-7.224l-4.495-4.496c1.227-1.966,2.152-4.137,2.714-6.452H460.689z
							 M432.826,211.861c-5.423,0-9.819-4.396-9.819-9.818c0-5.423,4.396-9.82,9.819-9.82c5.422,0,9.819,4.396,9.819,9.82
							C442.645,207.465,438.249,211.861,432.826,211.861z">
						</path>
						<path style="fill:#130751;" d="M498.795,238.597v-8.043h-5.005c-0.423-1.828-1.13-3.548-2.079-5.105l3.567-3.567l-5.687-5.688
							l-3.54,3.539c-1.548-0.965-3.258-1.695-5.08-2.136v-5.048h-8.043v5.006c-1.829,0.422-3.548,1.13-5.105,2.079l-3.568-3.567
							l-5.687,5.687l3.539,3.539c-0.966,1.548-1.695,3.258-2.137,5.081h-5.047v8.043h5.005c0.423,1.828,1.131,3.548,2.08,5.105
							l-3.567,3.567l5.688,5.688l3.54-3.54c1.547,0.966,3.257,1.696,5.079,2.137v5.048h8.044v-5.006
							c1.828-0.423,3.548-1.13,5.105-2.079l3.568,3.567l5.687-5.688l-3.539-3.539c0.966-1.548,1.695-3.257,2.137-5.08H498.795z
							 M476.859,242.215c-4.27,0-7.73-3.461-7.73-7.73c0-4.27,3.461-7.731,7.73-7.731c4.269,0,7.73,3.461,7.73,7.731
							C484.589,238.755,481.128,242.215,476.859,242.215z"/>
						<path style="fill:#130751;" d="M454.763,257.207v-5.707h-3.551c-0.3-1.297-0.802-2.517-1.475-3.622l2.531-2.531l-4.035-4.035
							l-2.511,2.511c-1.098-0.685-2.312-1.202-3.605-1.516v-3.582h-5.707v3.552c-1.298,0.299-2.518,0.801-3.622,1.475l-2.531-2.531
							l-4.035,4.035l2.511,2.511c-0.685,1.098-1.202,2.311-1.516,3.605h-3.581v5.707h3.551c0.3,1.297,0.802,2.517,1.476,3.622
							l-2.531,2.531l4.035,4.035l2.511-2.511c1.098,0.686,2.311,1.203,3.604,1.516v3.581h5.707v-3.552
							c1.297-0.3,2.517-0.802,3.622-1.475l2.531,2.531l4.035-4.035l-2.511-2.511c0.685-1.098,1.202-2.311,1.516-3.604H454.763z
							 M439.199,259.775c-3.029,0-5.485-2.456-5.485-5.484c0-3.03,2.456-5.485,5.485-5.485c3.029,0,5.485,2.456,5.485,5.485
							C444.684,257.319,442.228,259.775,439.199,259.775z"/>
					</g>
				</g>
			</g>
			<polygon style="opacity:0.24;fill:#FFFFFF;" points="382.508,147.504 321.525,298.491 355.28,298.491 415.717,147.504 			"/>
			<polygon style="opacity:0.24;fill:#FFFFFF;" points="436.715,147.504 379.776,298.491 393.344,298.491 451.269,147.504 			"/>
		</g>
		<g>
			<g>
				<path style="fill:#054DDD;" d="M487.628,115.637c-0.344,0-0.694-0.076-1.025-0.237c-2.13-1.038-4.222-0.051-4.31-0.008
					c-1.157,0.557-2.559,0.088-3.13-1.062c-0.571-1.15-0.122-2.539,1.021-3.123c0.169-0.086,4.206-2.098,8.47-0.019
					c1.164,0.567,1.647,1.969,1.08,3.132C489.33,115.152,488.496,115.637,487.628,115.637z"/>
			</g>
			<g>
				<path style="fill:#054DDD;" d="M493.315,109.275c-0.465,0-0.933-0.137-1.343-0.424c-7.534-5.279-14.75-0.086-14.821-0.033
					c-1.042,0.768-2.508,0.546-3.277-0.495c-0.768-1.042-0.546-2.508,0.495-3.276c3.429-2.527,12.081-5.786,20.292-0.033
					c1.059,0.743,1.317,2.203,0.574,3.263C494.78,108.928,494.054,109.275,493.315,109.275z"/>
			</g>
			<g>
				<path style="fill:#054DDD;" d="M499.003,103.332c-0.501,0-1.005-0.16-1.431-0.49c-13.951-10.785-25.329-0.576-25.806-0.136
					c-0.949,0.875-2.43,0.819-3.308-0.127c-0.878-0.946-0.828-2.422,0.115-3.303c0.145-0.135,14.712-13.405,31.865-0.141
					c1.024,0.791,1.212,2.263,0.421,3.286C500.397,103.019,499.704,103.332,499.003,103.332z"/>
			</g>
		</g>
		<g>
			<g>
				
					<ellipse transform="matrix(0.7071 -0.7071 0.7071 0.7071 65.4787 428.8073)" style="fill:#FCA232;" cx="550.356" cy="135.364" rx="36.387" ry="36.387"/>
				<path style="fill:#F98816;" d="M522.618,111.826c-5.391,6.346-8.649,14.559-8.649,23.538c0,20.096,16.291,36.387,36.387,36.387
					c9.809,0,18.704-3.888,25.248-10.198C533.927,155.664,524.454,128.362,522.618,111.826z"/>
			</g>
			
				<text transform="matrix(1 0 0 1 523.9961 141.6567)" style="fill:#FBFFFD; ; font-size:21.3615px;">Edify</text>
		</g>
		<g id="XMLID_9074_">
			<path id="XMLID_9075_" style="fill:#4779F6;" d="M576.828,360.626l2.686,0.007c15.027-0.63,26.778-12.876,26.778-27.934
				c0-15.058-11.753-27.304-26.779-27.936l-2.661-0.008c-0.008,0.005-0.017,0.01-0.026,0.017
				c-14.853,0.787-26.47,13.03-26.47,27.928C550.356,347.594,561.973,359.839,576.828,360.626z M559.938,350.778
				c1.773-1.289,3.694-2.392,5.721-3.289c1.923,4.02,4.597,7.571,7.962,10.575C568.454,357.104,563.654,354.554,559.938,350.778z
				 M577.243,358.24c-4.092-3.074-7.388-7.056-9.572-11.559c3.068-1.115,6.283-1.754,9.572-1.904V358.24z M577.243,342.616
				c-3.594,0.153-7.104,0.854-10.446,2.082c-1.274-3.174-2.024-6.533-2.232-10l12.678-0.005V342.616z M577.243,332.528
				l-12.747,0.008c0.017-3.553,0.602-7.03,1.741-10.346c3.512,1.383,7.21,2.166,11.005,2.332V332.528z M582.658,358.132
				c3.521-3.123,6.286-6.828,8.23-11.032c2.178,0.885,4.245,2.005,6.154,3.339C593.187,354.505,588.135,357.201,582.658,358.132z
				 M598.472,348.804c-2.089-1.483-4.357-2.724-6.75-3.696c1.281-3.315,2.032-6.818,2.233-10.425l10.094-0.005
				C603.654,339.866,601.733,344.735,598.472,348.804z M599.279,317.657c3.139,4.357,4.812,9.483,4.85,14.857l-10.11,0.007
				c-0.018-3.683-0.613-7.301-1.769-10.762C594.742,320.681,597.103,319.303,599.279,317.657z M597.945,315.955
				c-1.999,1.508-4.163,2.775-6.444,3.772c-1.931-4.737-4.97-9.015-8.846-12.465C588.609,308.27,593.984,311.319,597.945,315.955z
				 M579.405,307.382c4.507,3.466,7.979,7.991,10.085,13.146c-3.242,1.159-6.631,1.784-10.085,1.857V307.382z M579.405,324.549
				c3.702-0.072,7.341-0.743,10.829-1.993c1.06,3.209,1.605,6.559,1.623,9.965l-12.452,0.007V324.549z M579.405,334.69l12.383-0.005
				c-0.199,3.344-0.905,6.594-2.097,9.672c-3.31-1.105-6.767-1.698-10.286-1.765V334.69z M579.405,344.75
				c3.227,0.066,6.399,0.603,9.44,1.602c-2.129,4.525-5.378,8.535-9.44,11.66V344.75z M577.243,307.156v15.201
				c-3.523-0.163-6.96-0.898-10.229-2.188C569.18,315.049,572.703,310.566,577.243,307.156z M573.624,307.33
				c-3.722,3.332-6.672,7.441-8.595,11.979c-2.125-1.011-4.14-2.261-5.998-3.722C562.87,311.263,567.996,308.369,573.624,307.33z
				 M557.664,317.263c2.039,1.605,4.25,2.972,6.579,4.067c-1.25,3.585-1.893,7.352-1.91,11.207l-9.814,0.005
				C552.552,326.983,554.328,321.712,557.664,317.263z M552.601,334.705l9.798-0.005c0.211,3.749,1.013,7.381,2.391,10.811
				c-2.238,0.989-4.357,2.217-6.309,3.656C555.038,345.03,553.013,340.045,552.601,334.705z"/>
		</g>
		<g>
			<rect x="188" y="223.359" style="fill:#4779F6;" width="79.333" height="16.734"/>
			<g>
				<defs>
					<path id="SVGID_1_" d="M201.841,230.82c0,2.857-2.316,5.173-5.173,5.173c-2.857,0-5.173-2.316-5.173-5.173
						s2.316-5.173,5.173-5.173C199.525,225.647,201.841,227.963,201.841,230.82z"/>
				</defs>
				<clipPath id="SVGID_00000067928177300746947540000006118058672818430899_">
					<use xlink:href="#SVGID_1_"  style="overflow:visible;"/>
				</clipPath>
				<path style="clip-path:url(#SVGID_00000067928177300746947540000006118058672818430899_);fill:#FFFFFF;" d="M201.841,230.82
					c0,2.857-2.316,5.173-5.173,5.173c-2.857,0-5.173-2.316-5.173-5.173s2.316-5.173,5.173-5.173
					C199.525,225.647,201.841,227.963,201.841,230.82z"/>
				<g style="clip-path:url(#SVGID_00000067928177300746947540000006118058672818430899_);">
					<path style="fill:#4779F6;" d="M198.471,228.93c0,0.996-0.807,1.803-1.803,1.803c-0.996,0-1.803-0.807-1.803-1.803
						c0-0.996,0.807-1.803,1.803-1.803C197.664,227.127,198.471,227.934,198.471,228.93z"/>
					<path style="fill:#4779F6;" d="M200.243,236.062h-7.15v-2.214c0-1.653,1.34-2.994,2.994-2.994h1.162
						c1.653,0,2.994,1.34,2.994,2.994V236.062z"/>
				</g>
			</g>
			<rect x="204.368" y="227.622" style="fill:#FFFFFF;" width="52.801" height="0.797"/>
			<rect x="204.368" y="230.023" style="fill:#FFFFFF;" width="52.801" height="0.797"/>
			<rect x="204.368" y="232.423" style="fill:#FFFFFF;" width="52.801" height="0.797"/>
			<rect x="204.368" y="234.824" style="fill:#FFFFFF;" width="52.801" height="0.797"/>
		</g>
		<g>
			<rect x="188" y="245.901" style="fill:#4779F6;" width="79.333" height="16.734"/>
			<g>
				<defs>
					<path id="SVGID_00000102504867141333830130000000642320370095886229_" d="M201.841,253.361c0,2.857-2.316,5.173-5.173,5.173
						c-2.857,0-5.173-2.316-5.173-5.173c0-2.857,2.316-5.173,5.173-5.173C199.525,248.189,201.841,250.505,201.841,253.361z"/>
				</defs>
				<clipPath id="SVGID_00000159441746197502072810000014334190364553011372_">
					<use xlink:href="#SVGID_00000102504867141333830130000000642320370095886229_"  style="overflow:visible;"/>
				</clipPath>
				<path style="clip-path:url(#SVGID_00000159441746197502072810000014334190364553011372_);fill:#FFFFFF;" d="M201.841,253.361
					c0,2.857-2.316,5.173-5.173,5.173c-2.857,0-5.173-2.316-5.173-5.173c0-2.857,2.316-5.173,5.173-5.173
					C199.525,248.189,201.841,250.505,201.841,253.361z"/>
				<g style="clip-path:url(#SVGID_00000159441746197502072810000014334190364553011372_);">
					<path style="fill:#4779F6;" d="M198.471,251.472c0,0.996-0.807,1.803-1.803,1.803c-0.996,0-1.803-0.807-1.803-1.803
						c0-0.996,0.807-1.803,1.803-1.803C197.664,249.669,198.471,250.476,198.471,251.472z"/>
					<path style="fill:#4779F6;" d="M200.243,258.604h-7.15v-2.214c0-1.653,1.34-2.994,2.994-2.994h1.162
						c1.653,0,2.994,1.34,2.994,2.994V258.604z"/>
				</g>
			</g>
			<rect x="204.368" y="250.164" style="fill:#FFFFFF;" width="52.801" height="0.797"/>
			<rect x="204.368" y="252.565" style="fill:#FFFFFF;" width="52.801" height="0.797"/>
			<rect x="204.368" y="254.965" style="fill:#FFFFFF;" width="52.801" height="0.797"/>
			<rect x="204.368" y="257.366" style="fill:#FFFFFF;" width="52.801" height="0.797"/>
		</g>
		<g>
			<path style="fill:#FFFFFF;" d="M299.751,109.063c-0.246,0-0.49,0.01-0.734,0.018c0.476-1.962,0.734-4.01,0.734-6.119
				c0-14.298-11.591-25.888-25.889-25.888c-6.022,0-11.558,2.062-15.956,5.51c-4.133-8.803-13.074-14.901-23.442-14.901
				c-12.395,0-22.749,8.713-25.288,20.346c-2.682-0.94-5.562-1.457-8.565-1.457c-13.147,0-23.998,9.803-25.66,22.496
				c-0.076-0.001-0.152-0.006-0.229-0.006c-7.376,0-13.806,4.037-17.208,10.022c-0.9,1.584,0.239,3.553,2.061,3.553h33.935h17.849
				h51.777h17.827h33.935c1.822,0,2.961-1.969,2.061-3.553C313.558,113.101,307.128,109.063,299.751,109.063z"/>
			<g>
				<polygon style="fill:#4779F6;" points="236.834,127.963 219.337,97.659 201.841,127.963 213.5,127.963 213.5,165.804 
					225.174,165.804 225.174,127.963 				"/>
				<polygon style="fill:#FCA232;" points="237.641,135.5 255.137,165.804 272.634,135.5 260.974,135.5 260.974,97.659 
					249.3,97.659 249.3,135.5 				"/>
			</g>
		</g>
		<g style="opacity:0.51;">
			<rect x="512.411" y="200.723" style="fill:#4779F6;" width="119.946" height="65.062"/>
			<rect x="517.852" y="207.346" style="fill:#E4EAFE;" width="99.901" height="4.68"/>
			<rect x="517.852" y="214.948" style="fill:#E4EAFE;" width="69.842" height="4.68"/>
			<rect x="517.852" y="222.549" style="fill:#E4EAFE;" width="85.471" height="4.68"/>
			<rect x="517.852" y="230.151" style="fill:#E4EAFE;" width="99.901" height="4.68"/>
			<rect x="517.852" y="237.753" style="fill:#E4EAFE;" width="92.191" height="4.68"/>
			<rect x="517.852" y="245.354" style="fill:#E4EAFE;" width="81.926" height="4.68"/>
			<rect x="517.852" y="252.956" style="fill:#E4EAFE;" width="94.16" height="4.68"/>
		</g>
		<g>
			<rect x="167.415" y="315.998" style="fill:#FCA232;" width="77.193" height="44.94"/>
			<polygon style="fill:#FFB564;" points="167.415,360.939 206.012,335.707 244.608,360.939 			"/>
			<polygon style="fill:#F98816;" points="167.415,315.998 206.012,346.983 244.608,315.998 			"/>
		</g>
		<g>
			<g>
				<path style="fill:#130751;" d="M395.393,72.659h-21c-2.534,0-4.589,2.054-4.589,4.589v40.822c0,2.534,2.054,4.589,4.589,4.589
					h21c2.534,0,4.589-2.054,4.589-4.589V77.248C399.981,74.714,397.927,72.659,395.393,72.659z"/>
				<g>
					<defs>
						<path id="SVGID_00000122710221155881219380000011337568549574081933_" d="M393.653,75.026h-17.52
							c-2.114,0-3.828,1.714-3.828,3.828v34.058c0,2.114,1.714,3.828,3.828,3.828h17.52c2.114,0,3.828-1.714,3.828-3.828V78.855
							C397.481,76.74,395.767,75.026,393.653,75.026z"/>
					</defs>
					<clipPath id="SVGID_00000113341990152060071500000009911192549894472097_">
						<use xlink:href="#SVGID_00000122710221155881219380000011337568549574081933_"  style="overflow:visible;"/>
					</clipPath>
					<path style="clip-path:url(#SVGID_00000113341990152060071500000009911192549894472097_);fill:#B6CEFF;" d="M393.653,75.026
						h-17.52c-2.114,0-3.828,1.714-3.828,3.828v34.058c0,2.114,1.714,3.828,3.828,3.828h17.52c2.114,0,3.828-1.714,3.828-3.828
						V78.855C397.481,76.74,395.767,75.026,393.653,75.026z"/>
					<polygon style="clip-path:url(#SVGID_00000113341990152060071500000009911192549894472097_);fill:#FFFFFF;" points="
						367.142,106.978 395.543,68.813 402.348,68.813 367.142,116.741 					"/>
					<polygon style="clip-path:url(#SVGID_00000113341990152060071500000009911192549894472097_);fill:#FFFFFF;" points="
						369.804,122.066 403.531,75.026 403.531,79.464 369.804,127.392 					"/>
				</g>
				<path style="fill:#FFFFFF;" d="M386.372,119.404c0,0.817-0.662,1.479-1.479,1.479c-0.817,0-1.479-0.662-1.479-1.479
					c0-0.817,0.662-1.479,1.479-1.479C385.71,117.924,386.372,118.587,386.372,119.404z"/>
			</g>
			<g>
				<rect x="393.382" y="84.051" style="fill:#FFFFFF;" width="40.529" height="30.804"/>
				<g>
					<polygon style="fill:#054DDD;" points="405.934,108.394 397.209,99.669 406.054,90.824 407.536,92.307 400.174,99.669 
						407.417,106.911 					"/>
				</g>
				<g>
					<polygon style="fill:#054DDD;" points="420.913,108.394 419.431,106.911 426.793,99.549 419.551,92.307 421.033,90.824 
						429.758,99.549 					"/>
				</g>
				<g>
					
						<rect x="405.14" y="98.895" transform="matrix(0.3828 -0.9238 0.9238 0.3828 162.8682 443.6726)" style="fill:#054DDD;" width="16.687" height="2.097"/>
				</g>
				<rect x="393.382" y="80.463" style="fill:#054DDD;" width="40.529" height="3.588"/>
			</g>
		</g>
	</g>
</g>
</svg>

