<?xml version="1.0" encoding="utf-8"?>
<!-- Generator: Adobe Illustrator 27.5.0, SVG Export Plug-In . SVG Version: 6.00 Build 0)  -->
<svg version="1.1" xmlns="http://www.w3.org/2000/svg" xmlns:xlink="http://www.w3.org/1999/xlink" x="0px" y="0px"
	 viewBox="0 0 500 500" style="enable-background:new 0 0 500 500;" xml:space="preserve">
<g id="Background_Complete">
	<g>
		<rect y="382.398" style="fill:#EBEBEB;" width="500" height="0.25"/>
		<rect x="416.779" y="398.494" style="fill:#EBEBEB;" width="33.122" height="0.25"/>
		<rect x="322.527" y="401.208" style="fill:#EBEBEB;" width="8.693" height="0.25"/>
		<rect x="396.586" y="389.208" style="fill:#EBEBEB;" width="19.192" height="0.25"/>
		<rect x="52.459" y="390.888" style="fill:#EBEBEB;" width="43.193" height="0.25"/>
		<rect x="104.556" y="390.888" style="fill:#EBEBEB;" width="6.333" height="0.25"/>
		<rect x="131.471" y="395.111" style="fill:#EBEBEB;" width="93.676" height="0.25"/>
		<path style="fill:#EBEBEB;" d="M237.014,337.8H43.915c-3.147,0-5.708-2.561-5.708-5.708V60.66c0-3.147,2.561-5.708,5.708-5.708
			h193.099c3.146,0,5.707,2.561,5.707,5.708v271.432C242.721,335.239,240.16,337.8,237.014,337.8z M43.915,55.203
			c-3.01,0-5.458,2.448-5.458,5.458v271.432c0,3.01,2.448,5.458,5.458,5.458h193.099c3.009,0,5.457-2.448,5.457-5.458V60.66
			c0-3.009-2.448-5.458-5.457-5.458H43.915z"/>
		<path style="fill:#EBEBEB;" d="M453.31,337.8H260.212c-3.147,0-5.707-2.561-5.707-5.708V60.66c0-3.147,2.561-5.708,5.707-5.708
			H453.31c3.148,0,5.708,2.561,5.708,5.708v271.432C459.019,335.239,456.458,337.8,453.31,337.8z M260.212,55.203
			c-3.009,0-5.457,2.448-5.457,5.458v271.432c0,3.01,2.448,5.458,5.457,5.458H453.31c3.01,0,5.458-2.448,5.458-5.458V60.66
			c0-3.009-2.448-5.458-5.458-5.458H260.212z"/>
	</g>
	<g>
		<g>
			<rect x="66.146" y="183.731" style="fill:#F0F0F0;" width="156.536" height="198.22"/>
			<g>
				<rect x="71.678" y="190.956" style="fill:#E0E0E0;" width="145.47" height="42.387"/>
				<rect x="71.678" y="197.818" style="fill:#EBEBEB;" width="8.264" height="35.525"/>
				<rect x="111.636" y="197.818" style="fill:#EBEBEB;" width="8.264" height="35.525"/>
				
					<rect x="160.075" y="197.374" transform="matrix(0.9855 -0.1698 0.1698 0.9855 -34.1527 31.0141)" style="fill:#EBEBEB;" width="8.264" height="35.525"/>
				<rect x="81.918" y="202.499" style="fill:#EBEBEB;" width="8.264" height="30.843"/>
				<rect x="100.912" y="202.499" style="fill:#EBEBEB;" width="8.264" height="30.843"/>
				<rect x="148.855" y="202.499" style="fill:#EBEBEB;" width="8.264" height="30.843"/>
				
					<rect x="125.934" y="201.97" transform="matrix(0.9762 -0.2169 0.2169 0.9762 -44.0585 33.3889)" style="fill:#EBEBEB;" width="8.264" height="30.843"/>
				<rect x="93.195" y="196.054" style="fill:#EBEBEB;" width="4.132" height="37.289"/>
				<rect x="142.347" y="196.054" style="fill:#EBEBEB;" width="4.132" height="37.289"/>
			</g>
			<g>
				
					<rect x="71.678" y="240.054" transform="matrix(-1 -1.224647e-16 1.224647e-16 -1 288.8267 522.4947)" style="fill:#E0E0E0;" width="145.47" height="42.387"/>
				
					<rect x="208.885" y="246.916" transform="matrix(-1 -1.224647e-16 1.224647e-16 -1 426.0327 529.3566)" style="fill:#EBEBEB;" width="8.264" height="35.525"/>
				
					<rect x="168.927" y="246.916" transform="matrix(-1 -1.224647e-16 1.224647e-16 -1 346.117 529.3566)" style="fill:#EBEBEB;" width="8.264" height="35.525"/>
				
					<rect x="120.488" y="246.472" transform="matrix(-0.9855 -0.1698 0.1698 -0.9855 202.551 545.796)" style="fill:#EBEBEB;" width="8.264" height="35.525"/>
				
					<rect x="198.645" y="251.597" transform="matrix(-1 -1.224647e-16 1.224647e-16 -1 405.5538 534.0381)" style="fill:#EBEBEB;" width="8.264" height="30.843"/>
				
					<rect x="179.651" y="251.597" transform="matrix(-1 -1.224647e-16 1.224647e-16 -1 367.566 534.0381)" style="fill:#EBEBEB;" width="8.264" height="30.843"/>
				
					<rect x="131.708" y="251.597" transform="matrix(-1 -1.224647e-16 1.224647e-16 -1 271.6804 534.0381)" style="fill:#EBEBEB;" width="8.264" height="30.843"/>
				
					<rect x="154.629" y="251.068" transform="matrix(-0.9762 -0.2169 0.2169 -0.9762 255.9371 561.0725)" style="fill:#EBEBEB;" width="8.264" height="30.843"/>
				
					<rect x="191.499" y="245.152" transform="matrix(-1 -1.224647e-16 1.224647e-16 -1 387.1308 527.5929)" style="fill:#EBEBEB;" width="4.132" height="37.289"/>
				
					<rect x="142.347" y="245.152" transform="matrix(-1 -1.224647e-16 1.224647e-16 -1 288.8266 527.5929)" style="fill:#EBEBEB;" width="4.132" height="37.289"/>
				<rect x="71.678" y="246.916" style="fill:#EBEBEB;" width="8.264" height="35.525"/>
				<rect x="81.918" y="251.597" style="fill:#EBEBEB;" width="8.264" height="30.843"/>
				<rect x="100.912" y="251.597" style="fill:#EBEBEB;" width="8.264" height="30.843"/>
				<rect x="93.195" y="245.152" style="fill:#EBEBEB;" width="4.132" height="37.289"/>
			</g>
			<g>
				<rect x="71.678" y="289.152" style="fill:#E0E0E0;" width="145.47" height="42.387"/>
				<g>
					<rect x="155.173" y="296.014" style="fill:#EBEBEB;" width="8.264" height="35.525"/>
					
						<rect x="203.612" y="295.571" transform="matrix(0.9855 -0.1698 0.1698 0.9855 -50.1978 39.8349)" style="fill:#EBEBEB;" width="8.264" height="35.525"/>
					<rect x="125.455" y="300.696" style="fill:#EBEBEB;" width="8.264" height="30.843"/>
					<rect x="144.449" y="300.696" style="fill:#EBEBEB;" width="8.264" height="30.843"/>
					<rect x="192.391" y="300.696" style="fill:#EBEBEB;" width="8.264" height="30.843"/>
					
						<rect x="169.471" y="300.167" transform="matrix(0.9762 -0.2169 0.2169 0.9762 -64.3214 45.17)" style="fill:#EBEBEB;" width="8.264" height="30.843"/>
					<rect x="136.732" y="294.251" style="fill:#EBEBEB;" width="4.132" height="37.289"/>
					<rect x="185.884" y="294.251" style="fill:#EBEBEB;" width="4.132" height="37.289"/>
					
						<rect x="108.541" y="295.571" transform="matrix(0.9855 -0.1698 0.1698 0.9855 -51.5795 23.6886)" style="fill:#EBEBEB;" width="8.264" height="35.525"/>
					<rect x="97.321" y="300.696" style="fill:#EBEBEB;" width="8.264" height="30.843"/>
					
						<rect x="74.4" y="300.167" transform="matrix(0.9762 -0.2169 0.2169 0.9762 -66.5857 24.5486)" style="fill:#EBEBEB;" width="8.264" height="30.843"/>
					<rect x="90.814" y="294.251" style="fill:#EBEBEB;" width="4.132" height="37.289"/>
				</g>
			</g>
		</g>
		<g>
			<path style="fill:#E6E6E6;" d="M305.284,263.633h88.214c9.568,0,17.325,7.757,17.325,17.325v68.884H287.958v-68.884
				C287.958,271.39,295.715,263.633,305.284,263.633z"/>
			<path style="fill:#E0E0E0;" d="M261.877,314.689h15.786c5.686,0,10.295,4.609,10.295,10.295v56.967h-36.376v-56.967
				C251.582,319.298,256.191,314.689,261.877,314.689z"/>
			<path style="fill:#EBEBEB;" d="M261.877,314.689h0.333c5.686,0,10.295,4.609,10.295,10.295v56.967h-20.924v-56.967
				C251.582,319.298,256.191,314.689,261.877,314.689z"/>
			<rect x="276.911" y="355.783" style="fill:#E6E6E6;" width="121.063" height="26.168"/>
			<path style="fill:#F5F5F5;" d="M276.74,331.851h116.753c5.781,0,10.467,4.686,10.467,10.467v6.52
				c0,5.781-4.686,10.467-10.467,10.467H276.74c-5.781,0-10.467-4.686-10.467-10.467v-6.52
				C266.273,336.537,270.959,331.851,276.74,331.851z"/>
			<path style="fill:#E0E0E0;enable-background:new    ;" d="M378.82,331.851h14.481c5.781,0,10.467,4.686,10.467,10.467v6.52
				c0,5.781-4.686,10.467-10.467,10.467H378.82c-5.781,0-10.467-4.686-10.467-10.467v-6.52
				C368.354,336.537,373.04,331.851,378.82,331.851z"/>
			<path style="fill:#E0E0E0;" d="M394.863,314.689h15.786c5.686,0,10.295,4.609,10.295,10.295v56.967h-36.376v-56.967
				C384.568,319.298,389.177,314.689,394.863,314.689z"/>
			<path style="fill:#F0F0F0;" d="M394.863,314.689h0.333c5.686,0,10.295,4.609,10.295,10.295v56.967h-20.924v-56.967
				C384.568,319.298,389.177,314.689,394.863,314.689z"/>
		</g>
		<g>
			
				<ellipse transform="matrix(0.9871 -0.1602 0.1602 0.9871 -19.9572 25.2246)" style="fill:#E0E0E0;" cx="146.479" cy="136.398" rx="23.554" ry="23.554"/>
			
				<ellipse transform="matrix(0.9871 -0.1602 0.1602 0.9871 -19.9572 25.2246)" style="fill:#F0F0F0;" cx="146.479" cy="136.398" rx="20.027" ry="20.027"/>
			
				<polyline style="fill:#F0F0F0;stroke:#E0E0E0;stroke-width:2;stroke-linecap:round;stroke-linejoin:round;stroke-miterlimit:10;" points="
				145.535,150.137 145.535,136.137 136.257,141.387 			"/>
		</g>
		<g>
			<rect x="277.857" y="106.684" style="fill:#E6E6E6;" width="150.752" height="133.77"/>
			<rect x="281.632" y="110.35" style="fill:#F0F0F0;" width="143.009" height="126.508"/>
			<polygon style="fill:#FFFFFF;" points="315.195,110.35 281.632,236.583 281.632,177.267 299.352,110.35 			"/>
			<polygon style="fill:#FFFFFF;" points="327.082,110.35 293.224,236.859 287.821,236.859 321.678,110.35 			"/>
			<polygon style="fill:#FFFFFF;" points="424.641,190.178 424.641,210.393 417.79,236.859 412.387,236.859 			"/>
			<rect x="329.102" y="108.076" style="fill:#E6E6E6;" width="2.409" height="131.608"/>
			<rect x="375.788" y="108.076" style="fill:#E6E6E6;" width="2.409" height="131.608"/>
		</g>
	</g>
</g>
<g id="Background_Simple" style="display:none;">
	<g style="display:inline;">
		<path style="fill:#407BFF;" d="M84.816,116.058c27.919-59.449,127.059-51.062,165.317-9.255
			c38.258,41.806,50.696,68.599,85.208,52.983c34.512-15.616,78.518-11.44,81.042,38.164s-37.913,108.263-102.09,125.615
			c-64.177,17.352-64.161,78.759-149.1,66.368c-46.31-6.756-47.365-56.86-40.825-98.301
			C130.909,250.191,52.438,185.002,84.816,116.058z"/>
		<path style="opacity:0.9;fill:#FFFFFF;" d="M84.816,116.058c27.919-59.449,127.059-51.062,165.317-9.255
			c38.258,41.806,50.696,68.599,85.208,52.983c34.512-15.616,78.518-11.44,81.042,38.164s-37.913,108.263-102.09,125.615
			c-64.177,17.352-64.161,78.759-149.1,66.368c-46.31-6.756-47.365-56.86-40.825-98.301
			C130.909,250.191,52.438,185.002,84.816,116.058z"/>
	</g>
</g>
<g id="Shadow_1_">
	<ellipse id="_x3C_Path_x3E__359_" style="fill:#F5F5F5;" cx="250" cy="416.238" rx="193.889" ry="11.323"/>
</g>
<g id="Plant">
	<g>
		<path style="fill:#407BFF;" d="M401.897,391.23c0,0,4.75-10.364-0.677-20.581c-5.427-10.217-7.001-12.624-3.541-14.717
			c3.46-2.093,5.047,8.173,5.047,8.173s2.916-7.063,0.508-14.454c-2.408-7.392-3.918-19.431-0.63-20.722
			c3.289-1.291,0.628,15.019,3.481,20.578c0,0,2.397-6.189,2.791-12.126c0.394-5.937-0.222-15.417,2.375-17.849
			s4.261-0.749,1.708,12.353c-2.552,13.102-2.533,23.752-2.533,23.752s5.637-17.186,9.42-17.688c3.783-0.501,3.778,5.064,0.54,9.892
			c-3.238,4.827-9.483,13.476-10.507,17.926c0,0,6.187-12.934,11.753-8.97c5.566,3.964-4.844,11.776-9.484,14.599
			c-4.64,2.823-7.862,20.518-7.862,20.518L401.897,391.23z"/>
		<path style="opacity:0.2;enable-background:new    ;" d="M401.897,391.23c0,0,4.75-10.364-0.677-20.581
			c-5.427-10.217-7.001-12.624-3.541-14.717c3.46-2.093,5.047,8.173,5.047,8.173s2.916-7.063,0.508-14.454
			c-2.408-7.392-3.918-19.431-0.63-20.722c3.289-1.291,0.628,15.019,3.481,20.578c0,0,2.397-6.189,2.791-12.126
			c0.394-5.937-0.222-15.417,2.375-17.849s4.261-0.749,1.708,12.353c-2.552,13.102-2.533,23.752-2.533,23.752
			s5.637-17.186,9.42-17.688c3.783-0.501,3.778,5.064,0.54,9.892c-3.238,4.827-9.483,13.476-10.507,17.926
			c0,0,6.187-12.934,11.753-8.97c5.566,3.964-4.844,11.776-9.484,14.599c-4.64,2.823-7.862,20.518-7.862,20.518L401.897,391.23z"/>
		<path style="fill:#407BFF;" d="M405.647,395.48c0,0-4.625-10.434,0.924-20.569c5.549-10.135,7.151-12.518,3.717-14.663
			c-3.434-2.145-5.145,8.097-5.145,8.097s-2.831-7.106-0.335-14.461c2.497-7.355,4.151-19.371,0.878-20.711
			c-3.273-1.34-0.808,15.008-3.728,20.525c0,0-2.322-6.224-2.645-12.167c-0.323-5.942,0.406-15.412-2.161-17.883
			c-2.567-2.47-4.251-0.813-1.856,12.326c2.395,13.139,2.248,23.788,2.248,23.788s-5.43-17.269-9.207-17.827
			c-3.777-0.558-3.839,5.008-0.659,9.883c3.18,4.876,9.321,13.616,10.292,18.081c0,0-6.031-13.025-11.644-9.144
			c-5.613,3.881,4.703,11.847,9.308,14.739c4.606,2.892,7.615,20.633,7.615,20.633L405.647,395.48z"/>
		<g>
			<polygon style="fill:#263238;" points="384.313,388.043 422.524,388.043 419.431,415.387 387.405,415.387 			"/>
		</g>
	</g>
</g>
<g id="Device">
	<g>
		<g>
			<path style="fill:#263238;" d="M242.601,410.992v3.592c0,0.448-0.364,0.802-0.812,0.802h-101.42c-3.75,0-6.307-3.788-4.907-7.258
				l32.14-79.599l51.937,0.354l-1.773,10.328l-11.457,66.846c-0.373,2.155,1.288,4.133,3.48,4.133h32
				C242.237,410.19,242.601,410.544,242.601,410.992z"/>
			<path style="opacity:0.5;fill:#FFFFFF;" d="M242.601,410.992v3.592c0,0.448-0.364,0.802-0.812,0.802h-101.42
				c-3.75,0-6.307-3.788-4.907-7.258l19.928-49.344l12.212-30.255l51.937,0.354l-1.773,10.328l-4.982,29.071l-6.475,37.775
				c-0.373,2.155,1.288,4.133,3.48,4.133h32C242.237,410.19,242.601,410.544,242.601,410.992z"/>
			<path style="opacity:0.2;enable-background:new    ;" d="M209.789,410.19h-65.988c-1.651,0-2.771-1.679-2.138-3.204
				l28.177-67.775h47.925l-11.457,66.846C205.936,408.212,207.597,410.19,209.789,410.19z"/>
			<polygon style="opacity:0.1;enable-background:new    ;" points="219.538,328.884 217.766,339.211 212.784,368.282 
				155.389,358.785 167.601,328.529 			"/>
		</g>
		<g>
			<g>
				<path style="fill:#263238;" d="M320.534,180.5h-5.096H85.179h-5.096c-3.398,0-6.153,2.755-6.153,6.153v162.782
					c0,3.398,2.755,6.153,6.153,6.153h5.096h230.258h5.096c3.398,0,6.153-2.755,6.153-6.153V186.654
					C326.687,183.255,323.932,180.5,320.534,180.5z"/>
				<path style="opacity:0.6;fill:#FFFFFF;" d="M320.534,180.5h-5.096H85.179h-5.096c-3.398,0-6.153,2.755-6.153,6.153v162.782
					c0,3.398,2.755,6.153,6.153,6.153h5.096h230.258h5.096c3.398,0,6.153-2.755,6.153-6.153V186.654
					C326.687,183.255,323.932,180.5,320.534,180.5z"/>
				<path style="opacity:0.2;enable-background:new    ;" d="M85.177,355.584H80.08c-3.394,0-6.146-2.752-6.146-6.146V186.656
					c0-3.404,2.752-6.157,6.146-6.157h5.097c-3.394,0-6.146,2.752-6.146,6.157v162.782C79.03,352.832,81.783,355.584,85.177,355.584
					z"/>
			</g>
		</g>
		<g>
			<rect x="84.578" y="185.787" style="fill:#407BFF;" width="236.567" height="156.968"/>
		</g>
		<g>
			<g>
				<circle style="opacity:0.4;fill:#FFFFFF;" cx="199.599" cy="225.003" r="20.539"/>
				<g>
					<g>
						<path style="fill:#FFFFFF;" d="M194.699,221.882v-1.923c0-1.866,1.517-3.383,3.383-3.383h3.034
							c1.866,0,3.383,1.517,3.383,3.383v1.923h2.191v-1.923c0-3.074-2.5-5.574-5.573-5.574h-3.034c-3.073,0-5.573,2.5-5.573,5.574
							v1.923H194.699z"/>
					</g>
					<path style="fill:#FFFFFF;" d="M189.752,224.408v10.095c0,0.616,0.5,1.116,1.116,1.116h17.461c0.616,0,1.116-0.5,1.116-1.116
						v-10.095c0-0.616-0.5-1.116-1.116-1.116h-17.461C190.252,223.292,189.752,223.792,189.752,224.408z M200.231,230.125v1.985
						h-1.264v-1.985c-0.361-0.218-0.613-0.597-0.613-1.049c0-0.688,0.558-1.246,1.246-1.246c0.688,0,1.246,0.558,1.246,1.246
						C200.845,229.528,200.592,229.906,200.231,230.125z"/>
				</g>
			</g>
			<g>
				<path style="fill:#FFFFFF;" d="M149.493,286.134h-19.4c-1.154,0-2.09-0.936-2.09-2.09v-19.401c0-1.154,0.936-2.09,2.09-2.09
					h19.4c1.154,0,2.09,0.936,2.09,2.09v19.401C151.583,285.198,150.648,286.134,149.493,286.134z"/>
				<path style="fill:#FFFFFF;" d="M179.396,286.101h-19.4c-1.154,0-2.09-0.936-2.09-2.09V264.61c0-1.154,0.936-2.09,2.09-2.09h19.4
					c1.154,0,2.09,0.936,2.09,2.09v19.401C181.486,285.165,180.551,286.101,179.396,286.101z"/>
				<path style="fill:#FFFFFF;" d="M209.299,286.068h-19.4c-1.154,0-2.09-0.936-2.09-2.09v-19.401c0-1.154,0.936-2.09,2.09-2.09
					h19.4c1.154,0,2.09,0.936,2.09,2.09v19.401C211.389,285.132,210.454,286.068,209.299,286.068z"/>
				<path style="fill:#FFFFFF;" d="M239.202,286.034h-19.4c-1.154,0-2.09-0.936-2.09-2.09v-19.4c0-1.154,0.936-2.09,2.09-2.09h19.4
					c1.154,0,2.09,0.936,2.09,2.09v19.4C241.292,285.099,240.357,286.034,239.202,286.034z"/>
				<path style="fill:#FFFFFF;" d="M269.105,286.001h-19.4c-1.154,0-2.09-0.936-2.09-2.09V264.51c0-1.154,0.936-2.09,2.09-2.09h19.4
					c1.154,0,2.09,0.936,2.09,2.09v19.401C271.195,285.065,270.259,286.001,269.105,286.001z"/>
				<g>
					<path style="fill:#263238;" d="M254.21,274.669c0-4.146,2.219-6.512,5.202-6.512c2.965,0,5.184,2.365,5.184,6.512
						c0,4.147-2.219,6.512-5.184,6.512C256.429,281.181,254.21,278.816,254.21,274.669z M262.777,274.669
						c0-3.256-1.382-4.893-3.365-4.893c-2,0-3.383,1.637-3.383,4.893c0,3.256,1.382,4.893,3.383,4.893
						C261.395,279.561,262.777,277.925,262.777,274.669z"/>
				</g>
				<g>
					<path style="fill:#263238;" d="M144.529,274.506c0,4.347-2.455,6.675-6.02,6.675c-1.2,0-2.346-0.236-3.165-0.746l0.691-1.418
						c0.673,0.436,1.528,0.6,2.456,0.6c2.583,0,4.22-1.618,4.22-4.802v-0.454c-0.746,1.109-2.091,1.673-3.674,1.673
						c-2.528,0-4.347-1.51-4.347-3.855c0-2.456,1.964-4.021,4.493-4.021C142.602,268.157,144.529,270.449,144.529,274.506z
						 M142.292,272.087c0-1.311-1.055-2.456-3.037-2.456c-1.655,0-2.801,0.964-2.801,2.474c0,1.491,1.11,2.455,2.892,2.455
						C141.092,274.56,142.292,273.487,142.292,272.087z"/>
				</g>
				<g>
					<path style="fill:#263238;" d="M164.501,274.67c0-4.146,2.219-6.512,5.202-6.512c2.965,0,5.184,2.365,5.184,6.512
						c0,4.148-2.219,6.512-5.184,6.512C166.72,281.182,164.501,278.817,164.501,274.67z M173.068,274.67
						c0-3.256-1.382-4.893-3.365-4.893c-2.001,0-3.383,1.637-3.383,4.893c0,3.256,1.382,4.893,3.383,4.893
						C171.686,279.563,173.068,277.926,173.068,274.67z"/>
				</g>
				<g>
					<path style="fill:#263238;" d="M204.199,279.453v1.582h-9.149v-1.237l5.184-5.001c1.346-1.31,1.601-2.11,1.601-2.91
						c0-1.31-0.927-2.11-2.71-2.11c-1.364,0-2.474,0.436-3.256,1.383l-1.236-1.073c0.982-1.219,2.673-1.929,4.656-1.929
						c2.655,0,4.365,1.364,4.365,3.547c0,1.237-0.364,2.347-2.092,4.002l-3.893,3.747H204.199z"/>
				</g>
				<g>
					<path style="fill:#263238;" d="M230.956,268.304v12.731h-1.801v-11.149h-2.874v-1.582H230.956z"/>
				</g>
			</g>
			<g style="opacity:0.6;">
				<path style="fill:#FFFFFF;" d="M177.226,256.789v0.448h-3.467v-4.902h3.362v0.448h-2.843v1.743h2.535v0.441h-2.535v1.821
					H177.226z"/>
				<path style="fill:#FFFFFF;" d="M181.727,255.102v2.136h-0.497v-2.087c0-0.777-0.406-1.177-1.106-1.177
					c-0.792,0-1.289,0.49-1.289,1.331v1.933h-0.497v-3.684h0.476v0.679c0.266-0.448,0.764-0.707,1.401-0.707
					C181.111,253.525,181.727,254.044,181.727,255.102z"/>
				<path style="fill:#FFFFFF;" d="M185.016,257.014c-0.196,0.175-0.49,0.259-0.777,0.259c-0.693,0-1.079-0.393-1.079-1.071v-2.228
					h-0.658v-0.42h0.658v-0.806h0.497v0.806h1.121v0.42h-1.121v2.199c0,0.434,0.224,0.672,0.637,0.672
					c0.203,0,0.406-0.063,0.546-0.188L185.016,257.014z"/>
				<path style="fill:#FFFFFF;" d="M188.993,255.55h-3.082c0.056,0.77,0.645,1.281,1.45,1.281c0.448,0,0.848-0.161,1.128-0.483
					l0.28,0.322c-0.329,0.393-0.84,0.603-1.421,0.603c-1.149,0-1.933-0.784-1.933-1.877c0-1.093,0.763-1.87,1.8-1.87
					c1.037,0,1.786,0.764,1.786,1.87C189,255.438,188.993,255.493,188.993,255.55z M185.911,255.178h2.612
					c-0.063-0.721-0.588-1.226-1.31-1.226C186.499,253.952,185.974,254.457,185.911,255.178z"/>
				<path style="fill:#FFFFFF;" d="M191.869,253.525v0.483c-0.042,0-0.084-0.007-0.119-0.007c-0.77,0-1.24,0.49-1.24,1.358v1.877
					h-0.497v-3.684h0.476v0.721C190.721,253.784,191.19,253.525,191.869,253.525z"/>
				<path style="fill:#FFFFFF;" d="M197.749,253.554l-1.842,4.125c-0.309,0.722-0.701,0.952-1.226,0.952
					c-0.343,0-0.672-0.112-0.896-0.336l0.231-0.371c0.182,0.182,0.406,0.28,0.672,0.28c0.329,0,0.553-0.154,0.763-0.616l0.161-0.357
					l-1.646-3.677h0.518l1.387,3.13l1.387-3.13H197.749z"/>
				<path style="fill:#FFFFFF;" d="M197.972,255.395c0-1.093,0.798-1.87,1.877-1.87s1.87,0.777,1.87,1.87
					c0,1.093-0.792,1.877-1.87,1.877S197.972,256.488,197.972,255.395z M201.214,255.395c0-0.861-0.582-1.435-1.366-1.435
					c-0.785,0-1.372,0.574-1.372,1.435c0,0.861,0.588,1.436,1.372,1.436C200.633,256.831,201.214,256.257,201.214,255.395z"/>
				<path style="fill:#FFFFFF;" d="M206.052,253.554v3.684h-0.476v-0.673c-0.259,0.449-0.735,0.708-1.324,0.708
					c-0.938,0-1.555-0.525-1.555-1.583v-2.136h0.498v2.087c0,0.784,0.406,1.184,1.106,1.184c0.771,0,1.254-0.497,1.254-1.338v-1.933
					H206.052z"/>
				<path style="fill:#FFFFFF;" d="M209.299,253.525v0.483c-0.042,0-0.084-0.007-0.119-0.007c-0.771,0-1.24,0.49-1.24,1.358v1.877
					h-0.497v-3.684h0.476v0.721C208.15,253.784,208.62,253.525,209.299,253.525z"/>
				<path style="fill:#FFFFFF;" d="M211.754,254.786c0-1.429,1.093-2.493,2.577-2.493c1.471,0,2.571,1.058,2.571,2.493
					c0,1.436-1.1,2.493-2.571,2.493C212.847,257.279,211.754,256.215,211.754,254.786z M216.384,254.786
					c0-1.17-0.876-2.031-2.052-2.031c-1.184,0-2.066,0.861-2.066,2.031c0,1.17,0.882,2.031,2.066,2.031
					C215.508,256.817,216.384,255.956,216.384,254.786z"/>
				<path style="fill:#FFFFFF;" d="M218.944,252.783h-1.723v-0.448h3.964v0.448h-1.723v4.454h-0.518V252.783z"/>
				<path style="fill:#FFFFFF;" d="M225.848,254.016c0,1.044-0.757,1.674-2.004,1.674h-1.316v1.548h-0.519v-4.902h1.835
					C225.091,252.335,225.848,252.965,225.848,254.016z M225.329,254.016c0-0.784-0.518-1.232-1.499-1.232h-1.303v2.451h1.303
					C224.811,255.234,225.329,254.786,225.329,254.016z"/>
			</g>
			<g style="opacity:0.6;">
				<path style="fill:#FFFFFF;" d="M180.146,298.895l0.203-0.398c0.35,0.343,0.974,0.595,1.618,0.595
					c0.917,0,1.316-0.385,1.316-0.868c0-1.345-3.019-0.519-3.019-2.332c0-0.722,0.56-1.345,1.807-1.345
					c0.553,0,1.127,0.161,1.52,0.434l-0.175,0.413c-0.42-0.273-0.911-0.406-1.345-0.406c-0.896,0-1.296,0.399-1.296,0.89
					c0,1.345,3.019,0.532,3.019,2.318c0,0.722-0.574,1.338-1.828,1.338C181.231,299.532,180.51,299.273,180.146,298.895z"/>
				<path style="fill:#FFFFFF;" d="M188.023,297.803h-3.081c0.056,0.77,0.645,1.281,1.45,1.281c0.448,0,0.848-0.161,1.128-0.483
					l0.28,0.322c-0.329,0.392-0.84,0.602-1.421,0.602c-1.149,0-1.933-0.784-1.933-1.877c0-1.093,0.763-1.87,1.8-1.87
					c1.037,0,1.786,0.764,1.786,1.87C188.03,297.69,188.023,297.746,188.023,297.803z M184.941,297.431h2.612
					c-0.063-0.721-0.588-1.226-1.31-1.226C185.53,296.205,185.004,296.71,184.941,297.431z"/>
				<path style="fill:#FFFFFF;" d="M192.433,297.354v2.136h-0.497v-2.087c0-0.777-0.406-1.177-1.106-1.177
					c-0.792,0-1.289,0.49-1.289,1.331v1.933h-0.497v-3.684h0.476v0.679c0.266-0.448,0.764-0.707,1.401-0.707
					C191.816,295.778,192.433,296.297,192.433,297.354z"/>
				<path style="fill:#FFFFFF;" d="M197.158,294.293v5.197h-0.476v-0.729c-0.301,0.497-0.813,0.764-1.422,0.764
					c-1.051,0-1.835-0.764-1.835-1.877c0-1.114,0.784-1.87,1.835-1.87c0.588,0,1.093,0.252,1.401,0.729v-2.214H197.158z
					 M196.667,297.648c0-0.861-0.588-1.436-1.366-1.436c-0.785,0-1.373,0.574-1.373,1.436c0,0.861,0.588,1.436,1.373,1.436
					C196.079,299.084,196.667,298.51,196.667,297.648z"/>
				<path style="fill:#FFFFFF;" d="M203.156,297.207v2.283h-0.476v-0.574c-0.224,0.378-0.658,0.609-1.268,0.609
					c-0.833,0-1.345-0.435-1.345-1.071c0-0.567,0.364-1.044,1.422-1.044h1.169v-0.225c0-0.63-0.357-0.973-1.043-0.973
					c-0.476,0-0.924,0.168-1.226,0.434l-0.224-0.371c0.371-0.315,0.917-0.497,1.499-0.497
					C202.617,295.778,203.156,296.255,203.156,297.207z M202.659,298.384v-0.602h-1.156c-0.714,0-0.945,0.28-0.945,0.658
					c0,0.428,0.343,0.693,0.932,0.693C202.05,299.133,202.463,298.867,202.659,298.384z"/>
				<path style="fill:#FFFFFF;" d="M207.931,295.807v3.235c0,1.268-0.623,1.842-1.842,1.842c-0.672,0-1.331-0.203-1.716-0.567
					l0.252-0.378c0.35,0.315,0.883,0.504,1.45,0.504c0.932,0,1.359-0.427,1.359-1.337v-0.47c-0.308,0.47-0.833,0.715-1.436,0.715
					c-1.051,0-1.849-0.735-1.849-1.793c0-1.058,0.798-1.779,1.849-1.779c0.616,0,1.148,0.252,1.457,0.735v-0.707H207.931z
					 M207.448,297.558c0-0.799-0.588-1.345-1.401-1.345s-1.394,0.546-1.394,1.345c0,0.798,0.581,1.352,1.394,1.352
					S207.448,298.355,207.448,297.558z"/>
				<path style="fill:#FFFFFF;" d="M212.102,297.207v2.283h-0.476v-0.574c-0.224,0.378-0.658,0.609-1.268,0.609
					c-0.833,0-1.345-0.435-1.345-1.071c0-0.567,0.364-1.044,1.422-1.044h1.169v-0.225c0-0.63-0.357-0.973-1.044-0.973
					c-0.476,0-0.925,0.168-1.226,0.434l-0.224-0.371c0.371-0.315,0.917-0.497,1.499-0.497
					C211.563,295.778,212.102,296.255,212.102,297.207z M211.605,298.384v-0.602h-1.156c-0.714,0-0.945,0.28-0.945,0.658
					c0,0.428,0.343,0.693,0.932,0.693C210.996,299.133,211.409,298.867,211.605,298.384z"/>
				<path style="fill:#FFFFFF;" d="M213.34,294.644c0-0.189,0.161-0.351,0.364-0.351s0.364,0.154,0.364,0.344
					c0,0.203-0.154,0.364-0.364,0.364C213.501,295.001,213.34,294.84,213.34,294.644z M213.452,295.807h0.497v3.684h-0.497V295.807z
					"/>
				<path style="fill:#FFFFFF;" d="M218.725,297.354v2.136h-0.497v-2.087c0-0.777-0.406-1.177-1.106-1.177
					c-0.791,0-1.289,0.49-1.289,1.331v1.933h-0.497v-3.684h0.476v0.679c0.266-0.448,0.764-0.707,1.401-0.707
					C218.108,295.778,218.725,296.297,218.725,297.354z"/>
			</g>
			<path style="opacity:0.4;fill:#FFFFFF;" d="M227.464,324.49h-55.731c-4.588,0-8.308-3.719-8.308-8.308l0,0
				c0-4.588,3.719-8.308,8.308-8.308h55.731c4.588,0,8.308,3.719,8.308,8.308l0,0C235.772,320.771,232.053,324.49,227.464,324.49z"
				/>
			<g>
				<path style="fill:#FFFFFF;" d="M177.863,315.757c0-1.654,1.263-2.862,2.966-2.862c0.864,0,1.615,0.296,2.127,0.872l-0.52,0.503
					c-0.432-0.455-0.959-0.663-1.575-0.663c-1.264,0-2.199,0.911-2.199,2.15c0,1.239,0.935,2.151,2.199,2.151
					c0.616,0,1.143-0.216,1.575-0.672l0.52,0.504c-0.512,0.575-1.263,0.879-2.135,0.879
					C179.126,318.619,177.863,317.412,177.863,315.757z"/>
				<path style="fill:#FFFFFF;" d="M183.527,315.757c0-1.639,1.263-2.862,2.982-2.862c1.703,0,2.966,1.216,2.966,2.862
					c0,1.647-1.263,2.862-2.966,2.862C184.79,318.619,183.527,317.397,183.527,315.757z M188.676,315.757
					c0-1.239-0.928-2.15-2.167-2.15c-1.255,0-2.183,0.911-2.183,2.15c0,1.239,0.927,2.151,2.183,2.151
					C187.749,317.908,188.676,316.996,188.676,315.757z"/>
				<path style="fill:#FFFFFF;" d="M195.516,312.959v5.597h-0.656l-3.358-4.174v4.174h-0.8v-5.597h0.656l3.358,4.174v-4.174H195.516
					z"/>
				<path style="fill:#FFFFFF;" d="M198.31,313.654h-1.919v-0.695h4.629v0.695h-1.919v4.901h-0.791V313.654z"/>
				<path style="fill:#FFFFFF;" d="M201.894,312.959h0.8v5.597h-0.8V312.959z"/>
				<path style="fill:#FFFFFF;" d="M209.188,312.959v5.597h-0.656l-3.358-4.174v4.174h-0.8v-5.597h0.656l3.358,4.174v-4.174H209.188
					z"/>
				<path style="fill:#FFFFFF;" d="M210.822,316.141v-3.182h0.8v3.15c0,1.239,0.567,1.799,1.575,1.799
					c1.008,0,1.584-0.56,1.584-1.799v-3.15h0.775v3.182c0,1.623-0.887,2.479-2.367,2.479
					C211.718,318.619,210.822,317.764,210.822,316.141z"/>
				<path style="fill:#FFFFFF;" d="M221.26,317.86v0.695h-4.062v-5.597h3.95v0.695h-3.15v1.719h2.806v0.68h-2.806v1.808H221.26z"/>
			</g>
		</g>
		<g>
			<path style="opacity:0.1;fill:#FFFFFF;" d="M296.487,186.524c-32.709,32.77-116.72,105.701-211.912,100.309V186.524H296.487z"/>
			<path style="opacity:0.1;fill:#FFFFFF;" d="M321.144,246.754v96.741H178.718c5.463-19.54,16.38-46.296,37.561-65.418
				C254.38,243.676,298.597,243.778,321.144,246.754z"/>
		</g>
	</g>
</g>
<g id="Speech_bubble">
	<g>
		<polygon style="fill:#407BFF;" points="351.232,171.09 354.549,185.753 357.867,171.09 		"/>
		<polygon style="opacity:0.7;fill:#FFFFFF;" points="351.232,171.09 354.549,185.753 357.867,171.09 		"/>
		<path style="fill:#407BFF;" d="M391.7,174.338h-74.302c-4.745,0-8.592-3.847-8.592-8.592v-27.574c0-4.745,3.847-8.592,8.592-8.592
			H391.7c4.745,0,8.592,3.847,8.592,8.592v27.574C400.292,170.491,396.445,174.338,391.7,174.338z"/>
		<path style="opacity:0.7;fill:#FFFFFF;" d="M391.7,174.338h-74.302c-4.745,0-8.592-3.847-8.592-8.592v-27.574
			c0-4.745,3.847-8.592,8.592-8.592H391.7c4.745,0,8.592,3.847,8.592,8.592v27.574C400.292,170.491,396.445,174.338,391.7,174.338z"
			/>
		<g style="opacity:0.5;">
			<path style="fill:#263238;" d="M327.084,146.007v1.935h-0.792v-1.951l-2.223-3.646h0.855l1.791,2.951l1.799-2.951h0.792
				L327.084,146.007z"/>
			<path style="fill:#263238;" d="M329.133,145.824c0-1.264,0.935-2.159,2.207-2.159c1.271,0,2.199,0.896,2.199,2.159
				c0,1.263-0.927,2.167-2.199,2.167C330.069,147.99,329.133,147.087,329.133,145.824z M332.763,145.824
				c0-0.904-0.607-1.487-1.423-1.487c-0.815,0-1.431,0.584-1.431,1.487c0,0.903,0.616,1.495,1.431,1.495
				C332.156,147.319,332.763,146.727,332.763,145.824z"/>
			<path style="fill:#263238;" d="M338.555,143.705v4.238h-0.728v-0.64c-0.311,0.44-0.839,0.688-1.439,0.688
				c-1.096,0-1.823-0.6-1.823-1.847v-2.439h0.768v2.351c0,0.832,0.416,1.247,1.144,1.247c0.799,0,1.311-0.496,1.311-1.407v-2.191
				H338.555z"/>
			<path style="fill:#263238;" d="M342.3,143.665v0.744c-0.064-0.008-0.12-0.008-0.176-0.008c-0.824,0-1.335,0.503-1.335,1.431
				v2.111h-0.768v-4.238h0.736v0.712C341.028,143.92,341.556,143.665,342.3,143.665z"/>
			<path style="fill:#263238;" d="M345.109,145.144c0-1.639,1.263-2.862,2.982-2.862c1.703,0,2.966,1.215,2.966,2.862
				c0,1.647-1.263,2.862-2.966,2.862C346.372,148.006,345.109,146.783,345.109,145.144z M350.258,145.144
				c0-1.239-0.928-2.151-2.167-2.151c-1.255,0-2.183,0.912-2.183,2.151c0,1.239,0.927,2.151,2.183,2.151
				C349.331,147.295,350.258,146.383,350.258,145.144z"/>
			<path style="fill:#263238;" d="M353.316,143.041h-1.919v-0.696h4.63v0.696h-1.919v4.901h-0.792V143.041z"/>
			<path style="fill:#263238;" d="M361.418,144.296c0,1.215-0.879,1.951-2.335,1.951H357.7v1.695h-0.8v-5.597h2.183
				C360.539,142.345,361.418,143.081,361.418,144.296z M360.619,144.296c0-0.8-0.536-1.255-1.559-1.255H357.7v2.511h1.359
				C360.083,145.552,360.619,145.096,360.619,144.296z"/>
			<path style="fill:#263238;" d="M364.373,145.144c0-1.655,1.263-2.862,2.966-2.862c0.864,0,1.615,0.295,2.127,0.871l-0.52,0.504
				c-0.432-0.455-0.959-0.663-1.575-0.663c-1.264,0-2.199,0.912-2.199,2.151c0,1.239,0.935,2.151,2.199,2.151
				c0.616,0,1.143-0.216,1.575-0.672l0.52,0.504c-0.512,0.576-1.263,0.879-2.135,0.879
				C365.636,148.006,364.373,146.799,364.373,145.144z"/>
			<path style="fill:#263238;" d="M369.933,145.824c0-1.264,0.936-2.159,2.206-2.159c1.272,0,2.199,0.896,2.199,2.159
				c0,1.263-0.927,2.167-2.199,2.167C370.869,147.99,369.933,147.087,369.933,145.824z M373.563,145.824
				c0-0.904-0.607-1.487-1.423-1.487c-0.815,0-1.431,0.584-1.431,1.487c0,0.903,0.616,1.495,1.431,1.495
				C372.956,147.319,373.563,146.727,373.563,145.824z"/>
			<path style="fill:#263238;" d="M379.403,142.01v5.933h-0.736v-0.671c-0.344,0.48-0.887,0.719-1.511,0.719
				c-1.239,0-2.143-0.872-2.143-2.167c0-1.295,0.903-2.159,2.143-2.159c0.6,0,1.127,0.224,1.48,0.68v-2.334H379.403z
				 M378.643,145.824c0-0.904-0.616-1.487-1.423-1.487c-0.815,0-1.431,0.584-1.431,1.487c0,0.903,0.616,1.495,1.431,1.495
				C378.027,147.319,378.643,146.727,378.643,145.824z"/>
			<path style="fill:#263238;" d="M384.674,146.08h-3.438c0.096,0.743,0.695,1.239,1.535,1.239c0.496,0,0.912-0.168,1.223-0.512
				l0.424,0.496c-0.384,0.448-0.967,0.688-1.671,0.688c-1.367,0-2.279-0.903-2.279-2.167c0-1.255,0.903-2.159,2.127-2.159
				c1.224,0,2.095,0.88,2.095,2.183C384.69,145.912,384.682,146.007,384.674,146.08z M381.236,145.528h2.718
				c-0.08-0.712-0.616-1.215-1.359-1.215C381.86,144.313,381.316,144.808,381.236,145.528z"/>
		</g>
		<g style="opacity:0.5;">
			<path style="fill:#263238;" d="M342.993,156.701c0,3.147-1.778,4.833-4.358,4.833c-0.869,0-1.699-0.171-2.292-0.54l0.5-1.027
				c0.487,0.316,1.106,0.435,1.778,0.435c1.87,0,3.055-1.172,3.055-3.476v-0.33c-0.54,0.804-1.514,1.212-2.66,1.212
				c-1.831,0-3.147-1.093-3.147-2.792c0-1.778,1.422-2.91,3.253-2.91C341.598,152.105,342.993,153.764,342.993,156.701z
				 M341.374,154.949c0-0.948-0.764-1.777-2.199-1.777c-1.198,0-2.028,0.698-2.028,1.79c0,1.08,0.803,1.778,2.094,1.778
				C340.504,156.74,341.374,155.963,341.374,154.949z"/>
			<path style="fill:#263238;" d="M344.26,156.819c0-3.002,1.607-4.714,3.767-4.714c2.146,0,3.753,1.712,3.753,4.714
				c0,3.002-1.607,4.714-3.753,4.714C345.867,161.534,344.26,159.822,344.26,156.819z M350.463,156.819
				c0-2.357-1.001-3.542-2.436-3.542c-1.449,0-2.45,1.186-2.45,3.542c0,2.357,1.001,3.542,2.45,3.542
				C349.462,160.362,350.463,159.176,350.463,156.819z"/>
			<path style="fill:#263238;" d="M359.487,160.283v1.146h-6.623v-0.896l3.753-3.621c0.975-0.948,1.159-1.528,1.159-2.107
				c0-0.948-0.671-1.528-1.962-1.528c-0.988,0-1.791,0.316-2.357,1.001l-0.895-0.777c0.711-0.882,1.936-1.396,3.371-1.396
				c1.922,0,3.16,0.988,3.16,2.568c0,0.896-0.263,1.699-1.514,2.897l-2.818,2.713H359.487z"/>
			<path style="fill:#263238;" d="M363.427,152.21v9.218h-1.304v-8.072h-2.081v-1.146H363.427z"/>
			<path style="fill:#263238;" d="M365.444,156.819c0-3.002,1.607-4.714,3.766-4.714c2.146,0,3.753,1.712,3.753,4.714
				c0,3.002-1.607,4.714-3.753,4.714C367.05,161.534,365.444,159.822,365.444,156.819z M371.646,156.819
				c0-2.357-1.001-3.542-2.436-3.542c-1.449,0-2.45,1.186-2.45,3.542c0,2.357,1.001,3.542,2.45,3.542
				C370.645,160.362,371.646,159.176,371.646,156.819z"/>
		</g>
	</g>
</g>
<g id="Character">
	<g>
		<g>
			<path style="fill:#DC897C;" d="M346.327,214.095l1.031,0.68l1.134,0.725c0.767,0.48,1.556,0.937,2.349,1.385
				c1.591,0.892,3.206,1.75,4.86,2.505c3.309,1.513,6.709,2.736,10.168,3.514l0.162,0.039c0.058,0.014,0.127,0.029,0.064,0.019
				c-0.051-0.002-0.112,0-0.248,0.003c-0.234,0.015-0.69,0.079-1.237,0.41c-0.542,0.326-0.899,0.841-1.018,1.13
				c-0.134,0.306-0.125,0.451-0.12,0.468c0.027,0.064,0.064-0.202,0.051-0.495c-0.009-0.304-0.05-0.674-0.112-1.063
				c-0.273-1.584-0.762-3.403-1.336-5.179c-1.142-3.581-2.5-7.263-3.847-10.878l3.858-2.072c2.313,3.343,4.372,6.755,6.185,10.463
				c0.879,1.875,1.75,3.758,2.381,6.004c0.156,0.569,0.3,1.165,0.407,1.838c0.099,0.681,0.195,1.406,0.087,2.445
				c-0.055,0.504-0.17,1.132-0.517,1.88c-0.328,0.731-1.006,1.645-1.972,2.224c-0.969,0.591-1.928,0.742-2.648,0.769
				c-0.382,0.015-0.688-0.009-0.983-0.042l-0.299-0.039l-0.2-0.03c-4.288-0.582-8.438-1.747-12.325-3.402
				c-1.947-0.823-3.863-1.705-5.706-2.729c-0.917-0.52-1.828-1.052-2.726-1.617c-0.448-0.285-0.9-0.566-1.344-0.873
				c-0.457-0.314-0.857-0.598-1.392-0.999L346.327,214.095z"/>
		</g>
		<g>
			<path style="fill:#407BFF;" d="M345.211,212.954c5.762,0.66,9.627,3.907,9.627,3.907l-4.025,12.38
				C350.813,229.24,331.404,211.372,345.211,212.954z"/>
			<path style="opacity:0.6;fill:#FFFFFF;" d="M345.173,223.407c2.75,3.178,5.634,5.831,5.634,5.831l1.655-5.087l2.374-7.286
				c0,0-3.865-3.256-9.621-3.91C336.723,211.984,340.783,218.358,345.173,223.407z"/>
			<path style="opacity:0.2;enable-background:new    ;" d="M345.173,223.407c2.75,3.178,5.634,5.831,5.634,5.831l1.655-5.087
				c-3.528-2.721-7.259-2.503-7.259-2.503C345.136,222.249,345.131,222.845,345.173,223.407z"/>
		</g>
		<path style="fill:#263238;" d="M302.012,194.69c0,0-9.3,30.925,10.289,35.074c19.589,4.149,21.644-10.08,21.644-10.08
			S317.898,195.32,302.012,194.69z"/>
		<g>
			
				<path style="fill:none;stroke:#263238;stroke-width:0.482;stroke-linecap:round;stroke-linejoin:round;stroke-miterlimit:10;" d="
				M297.41,204.692c0,0,0.957-1.782,2.681-1.887"/>
			<path style="fill:#DE5753;" d="M300.211,208.772c0,0-0.212,2.1-0.806,3.525c0,0,0.932,0.668,2.047,0.038L300.211,208.772z"/>
			<g>
				<path style="fill:#263238;" d="M298.325,207.423c0.209,0.548,0.674,0.88,1.04,0.741c0.366-0.139,0.493-0.696,0.284-1.244
					c-0.208-0.548-0.674-0.88-1.039-0.741C298.243,206.317,298.116,206.874,298.325,207.423z"/>
				<path style="fill:#263238;" d="M298.771,206.147l-1.37-0.014C297.401,206.133,298.376,206.91,298.771,206.147z"/>
			</g>
			<path style="fill:#E4897B;" d="M318.225,212.606c-0.04,0.09-0.08,0.18-0.14,0.25c-0.09,0.17-0.19,0.33-0.29,0.5
				c-0.59,1-1.32,1.99-2.3,2.75c-3.03,2.39-5.61,3.11-7.88,2.42c-0.11-0.03-0.22-0.07-0.33-0.11c-0.01,0.01-0.01,0.01-0.01,0.01
				c-3.37-1.37-5.96-5.4-8.09-10.73c-0.99-2.44-1.63-4.66-1.73-6.58c0-0.02-0.03-0.08-0.03-0.1c0-0.08-0.02-0.18-0.02-0.26
				c-0.08-2.71,0.86-4.93,3.16-6.77c0.8-0.64,1.76-1.24,2.9-1.79C313.515,187.316,323.235,203.176,318.225,212.606z"/>
			<path style="opacity:0.2;enable-background:new    ;" d="M317.795,213.356c-0.59,1-1.32,1.99-2.3,2.75
				c-3.03,2.39-5.61,3.11-7.88,2.42c1.84-0.49,4.04-1.47,5.69-3.45C314.385,213.806,316.025,213.366,317.795,213.356z"/>
			<path style="fill:#263238;" d="M297.416,201.05c0,0,2.792,7.345,10.94,7.213c0,0,6.359,5.993,10.65,4.092
				c5.85-2.593,7.056-13.232,1.09-20.666C312.36,182.049,295.476,188.95,297.416,201.05z"/>
			<path style="fill:#E4897B;" d="M303.997,207.837c-0.52-1.106-0.509-3.381,1.327-3.941c1.9-0.58,4.957,3.335,1.052,6.379
				C305.815,210.712,305.081,210.143,303.997,207.837z"/>
			<path style="fill:#263238;" d="M306.189,187.694c0,0-7.563,1.486-10.013,5.968c-2.861,5.234-2.963,9.297,4.608,11.949
				c0,0,9.604-9.04,13.743-10.044c4.138-1.004,7.355-1.18,7.355-1.18C319.134,186.521,309.238,184.379,306.189,187.694z"/>
			<path style="fill:#E4897B;" d="M313.517,216.3c0,0,5.2,3.605,6.556,9.539l16.212-9.456c0,0-12.692-2.898-14.876-7.806
				C321.407,208.577,312.931,209.631,313.517,216.3z"/>
		</g>
		<path style="fill:#407BFF;" d="M329.621,255.254c0,0-20.958-20.638-23.261-27.117c0,0,8.826-13.753,26.479-14.328
			c17.653-0.576,29.657,33.002,29.657,33.002L329.621,255.254z"/>
		<path style="opacity:0.6;fill:#FFFFFF;" d="M362.495,246.816l-32.87,8.44c0,0-4.58-4.51-9.7-9.97c-1.58-1.71-3.23-3.51-4.82-5.29
			c-4.17-4.73-7.85-9.35-8.74-11.86c0,0,8.82-13.75,26.47-14.33C350.495,213.236,362.495,246.816,362.495,246.816z"/>
		<path style="fill:#263238;" d="M309.981,204.736c0,0,3.069,10.2,13.849,13.586c10.78,3.386,8.074,14.384,18.524,13.087
			c5.561-0.69,10.32-12.012-6.733-21.987c-9.941-5.815-6.084-24.907-27.179-23.117C308.441,186.305,312.816,199.392,309.981,204.736
			z"/>
		<path style="fill:#E4897B;" d="M320.473,410.729l-4.995-1.137c0.751-24.978,4.359-55.234,7.553-77.942
			c0.502-3.56,0.988-6.925,1.46-10.061c0.228-1.491,0.441-2.923,0.652-4.302c1.033-6.809,1.918-12.191,2.468-15.518
			c0.404-2.427,0.635-3.759,0.635-3.759l17.973,4.394l-1.288,4.536l-4.251,14.977l-0.482,1.713l-2.817,9.887l-4.779,16.837
			C332.92,375.783,320.473,410.729,320.473,410.729z"/>
		<path style="fill:#E4897B;" d="M363.272,406.546l-5.122-0.257c-3.898-26.881-5.543-60.494-6.247-83.871
			c-0.105-3.621-0.193-7.008-0.263-10.074c-0.004-0.159,0-0.305-0.006-0.454c-0.13-6.088-0.194-10.93-0.222-13.997
			c-0.01-2.4-0.019-3.716-0.019-3.716l18.467,1.213l-0.793,7.695l-1.16,11.308l-0.229,2.216l-0.796,7.705l-2.132,20.664
			C369.472,369.965,363.272,406.546,363.272,406.546z"/>
		<g>
			<path style="fill:#263238;" d="M365.188,405.552c-0.015-0.641-7.895-0.139-7.895-0.139s-4.848,4.931-9.557,6.039
				c-4.71,1.108-2.077,3.934,3.186,3.934c5.264,0,9.281,0,13.021,0C367.681,415.387,365.344,412.201,365.188,405.552z"/>
			<g>
				<path style="fill:#263238;" d="M352.451,407.241c-0.153-0.125-0.31-0.373-0.191-0.84c0.057-0.226,0.199-0.406,0.421-0.533
					c0.418-0.24,1.1-0.259,1.767-0.193c-0.641-0.342-1.203-0.758-1.226-1.172c-0.015-0.27,0.159-0.492,0.518-0.663
					c0.337-0.159,0.681-0.169,1.02-0.028c1.069,0.444,1.731,2.284,1.758,2.362c0.019,0.054,0.015,0.111-0.008,0.16
					c-0.008,0.015-0.017,0.03-0.028,0.044h0l0,0c-0.019,0.023-0.042,0.041-0.07,0.054c-0.414,0.197-2.165,0.999-3.266,0.999
					C352.858,407.43,352.615,407.376,352.451,407.241z M352.888,406.228c-0.123,0.07-0.196,0.16-0.226,0.276
					c-0.078,0.309,0.02,0.39,0.052,0.417c0.371,0.306,1.815-0.129,2.976-0.621C354.807,406.103,353.456,405.902,352.888,406.228z
					 M353.918,404.217c-0.108,0.05-0.287,0.153-0.281,0.263c0.02,0.355,1.148,0.968,2.315,1.411
					c-0.273-0.596-0.77-1.452-1.352-1.694c-0.107-0.045-0.213-0.067-0.319-0.067C354.161,404.129,354.04,404.159,353.918,404.217z"
					/>
			</g>
		</g>
		<g>
			<path style="fill:#263238;" d="M323.011,405.552c-0.015-0.641-7.896-0.139-7.896-0.139s-4.848,4.931-9.557,6.039
				c-4.71,1.108-2.078,3.934,3.186,3.934c5.264,0,9.281,0,13.02,0C325.505,415.387,323.167,412.201,323.011,405.552z"/>
			<g>
				<path style="fill:#263238;" d="M310.275,407.241c-0.153-0.125-0.31-0.373-0.191-0.84c0.057-0.226,0.199-0.406,0.421-0.533
					c0.418-0.24,1.1-0.259,1.767-0.193c-0.641-0.342-1.202-0.758-1.226-1.172c-0.016-0.27,0.158-0.492,0.518-0.663
					c0.337-0.159,0.681-0.169,1.02-0.028c1.069,0.444,1.731,2.284,1.759,2.362c0.019,0.054,0.015,0.111-0.008,0.16
					c-0.008,0.015-0.017,0.03-0.028,0.044h-0.001l0,0c-0.019,0.023-0.042,0.041-0.07,0.054c-0.415,0.197-2.165,0.999-3.266,0.999
					C310.682,407.43,310.438,407.376,310.275,407.241z M310.712,406.228c-0.123,0.07-0.196,0.16-0.226,0.276
					c-0.078,0.309,0.02,0.39,0.052,0.417c0.372,0.306,1.816-0.129,2.977-0.621C312.631,406.103,311.28,405.902,310.712,406.228z
					 M311.742,404.217c-0.108,0.05-0.287,0.153-0.281,0.263c0.02,0.355,1.148,0.968,2.315,1.411
					c-0.273-0.596-0.77-1.452-1.352-1.694c-0.108-0.045-0.213-0.067-0.319-0.067C311.984,404.129,311.864,404.159,311.742,404.217z"
					/>
			</g>
		</g>
		<path style="fill:#263238;" d="M325.356,305.526l4.265-29.973v-20.298c11.23-8.442,32.875-8.442,32.875-8.442
			s16.637,23.065,8.552,61.036l-20.877,3.05l-1.335-7.081l-2.618,7.081L325.356,305.526z"/>
		<path style="opacity:0.2;fill:#FFFFFF;" d="M325.356,305.526l4.265-29.973v-20.298c11.23-8.442,32.875-8.442,32.875-8.442
			s16.637,23.065,8.552,61.036l-20.877,3.05l-1.335-7.081l-2.618,7.081L325.356,305.526z"/>
		<path style="opacity:0.2;enable-background:new    ;" d="M348.837,303.817l4.021-12.49c0,0,4.221-1.279,9.638-9.661
			C362.496,281.666,361.557,295.932,348.837,303.817z"/>
		<path style="opacity:0.2;enable-background:new    ;" d="M339.939,261.011l9.372-0.895c0,0,2.268,4.477,1.501,11.129l-6.012,3.607
			l-4.349-3.089C340.45,271.762,340.323,263.825,339.939,261.011z"/>
		<path style="opacity:0.2;enable-background:new    ;" d="M362.496,258.708c0,0,1.747,3.965,2.77,9.594l3.326,1.407l1.791-2.226
			c0,0-1.217-6.535-3.263-9.733L362.496,258.708z"/>
		<polygon style="fill:#263238;" points="324.973,303.817 347.134,310.322 345.743,313.297 324.685,306.821 		"/>
		<polygon style="fill:#263238;" points="349.311,309.891 349.676,312.625 371.406,309.891 371.742,306.437 		"/>
		<g>
			<path style="fill:#263238;" d="M353.872,250.966c6.409-1.021,10.748-1.046,10.748-1.046l-1.337-2.213
				c-3.647-0.107-7.169,0.15-10.48,0.626L353.872,250.966z"/>
			<path style="fill:#263238;" d="M333.937,253.718c-2.864,1.239-4.52,2.176-4.52,2.176l0.019,2.73
				c1.612-0.819,3.236-1.559,4.855-2.231L333.937,253.718z"/>
			<path style="fill:#263238;" d="M335.317,255.98c6.181-2.459,12.226-3.922,17.208-4.789l-0.998-2.663
				c-6.837,1.118-12.665,3.136-16.621,4.78L335.317,255.98z"/>
		</g>
		<g>
			<path style="fill:#E4897B;" d="M275.24,263.808l-5.679-2.28l-0.959,5.359c0,0,5.121,3.108,7.253-0.59L275.24,263.808z"/>
			<polygon style="fill:#E4897B;" points="266.743,261.857 264.923,266.005 268.602,266.887 269.561,261.528 			"/>
		</g>
		<g>
			<path style="fill:#E4897B;" d="M362.41,206.198l-0.675-6.082l-5.176,1.688c0,0-0.318,5.982,3.949,6.112L362.41,206.198z"/>
			<polygon style="fill:#E4897B;" points="360.113,197.788 355.598,198.145 356.56,201.804 361.736,200.116 			"/>
		</g>
		<path style="opacity:0.2;enable-background:new    ;" d="M319.925,245.286c-1.58-1.71-3.23-3.51-4.82-5.29
			c-0.61-3.72-1-6.99-1-6.99S320.345,237.166,319.925,245.286z"/>
		<g>
			<path style="fill:#DC897C;" d="M314.687,231.276c-0.589,2.486-1.288,4.754-2.015,7.096c-0.744,2.317-1.586,4.602-2.459,6.88
				c-0.863,2.281-1.825,4.531-2.87,6.755c-0.512,1.115-1.055,2.221-1.623,3.317c-0.272,0.551-0.58,1.093-0.873,1.637l-0.444,0.816
				l-0.228,0.417c-0.134,0.229-0.269,0.471-0.415,0.68c-1.18,1.712-2.536,2.696-3.81,3.481c-1.286,0.774-2.546,1.338-3.791,1.816
				c-2.491,0.944-4.94,1.54-7.378,2.021c-4.893,0.902-9.675,1.368-14.591,1.388l-0.405-4.361c2.226-0.484,4.53-0.987,6.759-1.57
				c2.243-0.546,4.461-1.161,6.605-1.872c2.144-0.692,4.238-1.472,6.102-2.385c0.929-0.452,1.793-0.951,2.491-1.469
				c0.695-0.508,1.207-1.065,1.324-1.344c0.022-0.036,0.017-0.059,0.034-0.085l0.171-0.376l0.35-0.771
				c0.231-0.516,0.474-1.022,0.689-1.549c0.441-1.045,0.893-2.085,1.31-3.146c0.844-2.115,1.64-4.26,2.406-6.422
				c0.766-2.161,1.465-4.352,2.146-6.547c0.699-2.17,1.337-4.443,1.932-6.539L314.687,231.276z"/>
		</g>
		<path style="fill:#407BFF;" d="M309.795,223.742c-4.896,3.195-7.514,11.52-8.343,15.593l10.162,7.477l5.127-4.998
			C318.821,230.333,311.646,222.534,309.795,223.742z"/>
		<path style="opacity:0.6;fill:#FFFFFF;" d="M309.795,223.742c-4.896,3.195-7.514,11.52-8.343,15.593l10.162,7.477l5.127-4.998
			C318.821,230.333,311.646,222.534,309.795,223.742z"/>
		<g>
			<path style="fill:#263238;" d="M359.385,208.154l-7.251,0.772c-0.408,0.043-0.75-0.304-0.763-0.775l-0.438-15.374
				c-0.013-0.472,0.307-0.889,0.715-0.933l7.251-0.772c0.408-0.044,0.75,0.304,0.763,0.775l0.438,15.374
				C360.113,207.692,359.793,208.11,359.385,208.154z"/>
			<path style="opacity:0.6;fill:#FFFFFF;" d="M359.385,208.154l-7.251,0.772c-0.408,0.043-0.75-0.304-0.763-0.775l-0.438-15.374
				c-0.013-0.472,0.307-0.889,0.715-0.933l7.251-0.772c0.408-0.044,0.75,0.304,0.763,0.775l0.438,15.374
				C360.113,207.692,359.793,208.11,359.385,208.154z"/>
			<path style="fill:#263238;" d="M358.747,208.221l-7.251,0.772c-0.408,0.043-0.75-0.304-0.763-0.775l-0.438-15.374
				c-0.013-0.472,0.307-0.889,0.715-0.933l7.251-0.772c0.408-0.044,0.75,0.304,0.763,0.775l0.438,15.374
				C359.476,207.76,359.156,208.178,358.747,208.221z"/>
			<path style="opacity:0.7;fill:#FFFFFF;" d="M358.747,208.221l-7.251,0.772c-0.408,0.043-0.75-0.304-0.763-0.775l-0.438-15.374
				c-0.013-0.472,0.307-0.889,0.715-0.933l7.251-0.772c0.408-0.044,0.75,0.304,0.763,0.775l0.438,15.374
				C359.476,207.76,359.156,208.178,358.747,208.221z"/>
			<path style="fill:#407BFF;" d="M358.27,191.439l-1.896,0.202l-0.244,0.585l-2.938,0.313l-0.276-0.529l-1.896,0.202
				c-0.264,0.028-0.473,0.3-0.464,0.605l0.438,15.374c0.009,0.306,0.231,0.531,0.496,0.503l7.251-0.772
				c0.264-0.028,0.472-0.3,0.464-0.605l-0.438-15.374C358.757,191.637,358.534,191.411,358.27,191.439z"/>
			<path style="opacity:0.8;fill:#FFFFFF;" d="M357.3,196.995l-5.334,0.568c-0.26,0.028-0.478-0.193-0.486-0.494l-0.042-1.483
				c-0.009-0.3,0.195-0.566,0.455-0.594l5.334-0.568c0.26-0.028,0.478,0.193,0.486,0.494l0.042,1.483
				C357.764,196.701,357.56,196.967,357.3,196.995z"/>
		</g>
	</g>
</g>
</svg>
