<?xml version="1.0" encoding="utf-8"?>
<!-- Generator: Adobe Illustrator 27.5.0, SVG Export Plug-In . SVG Version: 6.00 Build 0)  -->
<svg version="1.1" xmlns="http://www.w3.org/2000/svg" xmlns:xlink="http://www.w3.org/1999/xlink" x="0px" y="0px"
	 viewBox="0 0 500 500" style="enable-background:new 0 0 500 500;" xml:space="preserve">
<g id="Background">
</g>
<g id="Objects">
	<g>
		<g>
			<path style="fill:#D7EFF9;" d="M351.106,124.455c-28.04-8.919-61.13-13.167-90.499-14.613
				c-53.33-2.627-107.359,11.308-152.766,39.401c-24.335,15.056-46.732,34.743-59.452,60.376
				c-31.92,64.325,18.253,123.278,81.202,135.807c31.744,6.318,64.488,3.684,96.789,1.638c41.977-2.659,84.119-4.28,126.082-1.414
				c16.005,1.093,32.28,2.82,47.939-0.666c36.667-8.163,62.348-44.857,65.9-82.252c2.957-31.138-7.442-63.32-28.061-86.84
				c-8.901-10.152-19.541-18.641-31.033-25.683C389.238,139.199,370.526,130.632,351.106,124.455z"/>
			<path style="fill:#D7EFF9;" d="M438.462,128.219c1.001-0.044,2.045-0.101,2.919-0.592c0.781-0.439,1.342-1.182,1.815-1.943
				c1.369-2.202,2.196-4.867,1.664-7.404c-0.532-2.537-2.677-4.821-5.267-4.953c-2.589-0.133-5.133,2.432-4.516,4.95
				c-1.319-1.1-3.062-1.808-4.755-1.522c-1.693,0.285-3.225,1.755-3.223,3.472c0.034-4.964-5.125-9.275-10.003-8.359
				c-4.879,0.916-8.123,6.804-6.291,11.417c-1.265-0.7-2.615-1.421-4.06-1.353c-1.444,0.068-2.935,1.277-2.742,2.71
				c-0.544-4.026-8.594-2.334-8.994,1.336c-0.474,4.35,6.436,3.316,9.116,3.273C415.575,129.066,427.022,128.723,438.462,128.219z"
				/>
			<path style="fill:#FFFFFF;" d="M208.964,141.276c1.001-0.044,2.045-0.101,2.919-0.592c0.781-0.439,1.342-1.182,1.816-1.943
				c1.369-2.201,2.196-4.867,1.664-7.404c-0.532-2.537-2.677-4.82-5.267-4.953c-2.589-0.133-5.133,2.432-4.516,4.95
				c-1.319-1.1-3.061-1.808-4.755-1.522c-1.693,0.285-3.225,1.755-3.223,3.472c0.034-4.964-5.125-9.275-10.003-8.359
				c-4.879,0.916-8.123,6.804-6.291,11.417c-1.265-0.7-2.615-1.421-4.06-1.353c-1.444,0.068-2.935,1.277-2.742,2.71
				c-0.544-4.026-8.594-2.334-8.994,1.336c-0.474,4.35,6.436,3.316,9.116,3.273C186.077,142.124,197.524,141.78,208.964,141.276z"/>
			<path style="fill:#D7EFF9;" d="M132.485,116.785c3.074-0.056,6.352-0.175,8.871-1.937c2.519-1.762,3.652-5.82,1.412-7.925
				c-1.927-1.811-5.65-0.803-6.4,1.733c0.484-2.052-2.64-3.763-4.108-2.25c0.012-3.178-0.968-6.353-2.771-8.97
				c-1.055-1.533-2.498-2.939-4.321-3.314c-1.904-0.392-3.874,0.421-5.435,1.58c-3.758,2.79-5.766,7.76-4.999,12.377
				c-0.946-1.278-2.685-1.912-4.231-1.542c-1.547,0.37-2.81,1.722-3.076,3.29c-1.297-1.157-2.729-2.344-4.457-2.529
				c-1.728-0.185-3.71,1.156-3.503,2.881c-2.105-2.234-4.763-4.114-7.799-4.564c-3.036-0.451-6.454,0.828-7.856,3.558
				c-1.503,2.927,0.317,7.102,3.364,8.189c3.703,1.321,9.486,0.076,13.368,0.005C111.191,117.173,121.838,116.979,132.485,116.785z"
				/>
		</g>
		<g>
			<g>
				<path style="fill:#244E80;" d="M43.682,352.696c-1.827-0.571-3.594-1.332-5.259-2.278c-1.32-0.75-2.606-1.637-3.488-2.873
					c-0.882-1.236-1.307-2.879-0.79-4.307c1.024-2.823,3.957-2.865,6.424-3.222c2.941-0.426,5.963-0.038,8.651,1.257
					c-1.949-1.272-3.659-2.909-5.014-4.801c-0.552-0.771-1.064-1.752-0.7-2.627c0.304-0.731,1.155-1.117,1.947-1.097
					c0.792,0.02,1.536,0.365,2.235,0.738c0.664,0.354,1.444,0.991,2.107,1.076c-2.421-2.701-5.763-4.835-8.368-7.435
					c-2.435-2.431-4.755-5.044-6.308-8.114c-1.743-3.445-3.244-9.526-0.031-12.543c3.032-2.848,8.146-2.514,11.453-0.356
					c2.478,1.617,4.348,4.003,5.996,6.46c4.101,6.114,7.092,12.891,10.062,19.628c0.588-1.333,1.452-2.868,2.907-2.951
					c0.872-0.049,1.693,0.488,2.215,1.189c0.522,0.7,0.798,1.548,1.065,2.379c0.374-1.89,1.203-4.117,3.102-4.441
					c1.729-0.295,3.251,1.271,3.895,2.903c1.22,3.089,0.496,6.691-1.206,9.543c-2.358,3.95-6.434,6.701-10.09,9.35
					c-1.151,0.834-2.328,1.651-3.63,2.218c-0.822,0.358-1.685,0.612-2.556,0.823C53.502,354.373,48.392,354.167,43.682,352.696z"/>
				
					<path style="fill:none;stroke:#FBB040;stroke-width:0.5669;stroke-linecap:round;stroke-linejoin:round;stroke-miterlimit:10;" d="
					M39.014,308.478c0,0,19.174,18.234,24.682,39.402"/>
				
					<path style="fill:none;stroke:#FBB040;stroke-width:0.5669;stroke-linecap:round;stroke-linejoin:round;stroke-miterlimit:10;" d="
					M73.099,331.232c0,0-2.936,9.564-9.914,14.824"/>
				
					<path style="fill:none;stroke:#FBB040;stroke-width:0.5669;stroke-linecap:round;stroke-linejoin:round;stroke-miterlimit:10;" d="
					M35.664,343.997c0,0,18.18,5.892,26.764-0.284"/>
				
					<path style="fill:none;stroke:#FBB040;stroke-width:0.5669;stroke-linecap:round;stroke-linejoin:round;stroke-miterlimit:10;" d="
					M46.086,335.283c0,0,9.486,6.124,14.823,4.481"/>
				
					<path style="fill:none;stroke:#FBB040;stroke-width:0.5669;stroke-linecap:round;stroke-linejoin:round;stroke-miterlimit:10;" d="
					M38.462,317.783c0,0,10.248,12.223,16.311,10.134"/>
				
					<path style="fill:none;stroke:#FBB040;stroke-width:0.5669;stroke-linecap:round;stroke-linejoin:round;stroke-miterlimit:10;" d="
					M46.576,309.705c0.155,0.222,3.999,7.702,3.267,11.169"/>
				
					<path style="fill:none;stroke:#FBB040;stroke-width:0.5669;stroke-linecap:round;stroke-linejoin:round;stroke-miterlimit:10;" d="
					M65.576,332.286c0,0-0.613,6.979-3.798,9.637"/>
				
					<path style="fill:none;stroke:#FBB040;stroke-width:0.5669;stroke-linecap:round;stroke-linejoin:round;stroke-miterlimit:10;" d="
					M56.246,346.131c0,0-4.682,3.588-9.073,4.239"/>
				
					<path style="fill:none;stroke:#FBB040;stroke-width:0.5669;stroke-linecap:round;stroke-linejoin:round;stroke-miterlimit:10;" d="
					M55.57,339.577c0,0-1.235,1.983-3.965,2.489"/>
			</g>
			<g>
				<path style="fill:#FBB040;" d="M52.021,324.73c-0.347-2.617,0.341-6.05,2.939-6.513c2.522-0.45,4.328,2.302,5.39,4.634
					c-2.687-6.854-3.341-14.489-1.861-21.7c0.367-1.786,1.196-3.869,2.996-4.164c1.818-0.298,3.276,1.45,4.16,3.066
					c2.637,4.822,3.996,10.336,3.901,15.831c-0.342-2.175,1.361-4.46,3.544-4.753c0.283,0.574,0.566,1.149,0.849,1.723
					c-0.757-4.263-0.87-8.639-0.333-12.935c0.257-2.058,0.68-4.145,1.748-5.923c1.067-1.778,2.883-3.215,4.952-3.358
					c2.063-0.143,4.056,1.022,5.352,2.633c1.296,1.611,1.991,3.62,2.499,5.624c2.151,8.487,1.266,17.71-2.458,25.634
					c2.218-1.132,5.096,0.335,6.201,2.566c1.106,2.231,0.825,4.904,0.127,7.294c-1.679,5.746-5.803,10.842-11.302,13.209
					C65.535,354.137,53.803,338.153,52.021,324.73z"/>
				
					<path style="fill:none;stroke:#244E80;stroke-width:0.8504;stroke-linecap:round;stroke-linejoin:round;stroke-miterlimit:10;" d="
					M80.957,294.321c0,0,5.799,27.1-10.781,50.05"/>
				
					<path style="fill:none;stroke:#244E80;stroke-width:0.8504;stroke-linecap:round;stroke-linejoin:round;stroke-miterlimit:10;" d="
					M61.668,299.849c0,0-0.535,25.192,12.29,38.554"/>
				
					<path style="fill:none;stroke:#244E80;stroke-width:0.8504;stroke-linecap:round;stroke-linejoin:round;stroke-miterlimit:10;" d="
					M55.029,321.942c0,0,6.372,15.913,16.406,20.61"/>
				
					<path style="fill:none;stroke:#244E80;stroke-width:0.8504;stroke-linecap:round;stroke-linejoin:round;stroke-miterlimit:10;" d="
					M89.039,328.976c0,0-4.397,11.652-16.314,11.55"/>
				
					<path style="fill:none;stroke:#244E80;stroke-width:0.8504;stroke-linecap:round;stroke-linejoin:round;stroke-miterlimit:10;" d="
					M77.207,331.527c0,0-3.599-6.268-4.167-13.26"/>
				
					<path style="fill:none;stroke:#244E80;stroke-width:0.8504;stroke-linecap:round;stroke-linejoin:round;stroke-miterlimit:10;" d="
					M81.496,314.572c0,0,4.095-0.847,4.815-8.766"/>
				
					<path style="fill:none;stroke:#244E80;stroke-width:0.8504;stroke-linecap:round;stroke-linejoin:round;stroke-miterlimit:10;" d="
					M64.282,319.77c0,0,2.186-5.678,1.713-10.791"/>
				
					<path style="fill:none;stroke:#244E80;stroke-width:0.8504;stroke-linecap:round;stroke-linejoin:round;stroke-miterlimit:10;" d="
					M60.889,332.643c0,0,1.326-1.527,1.453-6.817"/>
				
					<path style="fill:none;stroke:#244E80;stroke-width:0.8504;stroke-linecap:round;stroke-linejoin:round;stroke-miterlimit:10;" d="
					M78.44,339.572c0,0-0.335,3.013,4.197,2.527"/>
			</g>
			<g>
				<path style="fill:#FBB040;" d="M454.828,331.241c1.16-2.371,1.597-5.845-0.72-7.11c-2.249-1.228-4.835,0.809-6.582,2.683
					c4.723-5.646,7.768-12.679,8.654-19.987c0.219-1.81,0.094-4.049-1.519-4.9c-1.629-0.859-3.566,0.335-4.917,1.587
					c-4.032,3.735-7.07,8.533-8.725,13.774c1.015-1.954,0.125-4.662-1.852-5.632c-0.451,0.455-0.902,0.91-1.352,1.365
					c2.071-3.802,3.567-7.916,4.421-12.16c0.409-2.033,0.67-4.146,0.223-6.171c-0.448-2.025-1.714-3.964-3.63-4.757
					c-1.91-0.791-4.171-0.318-5.911,0.798c-1.74,1.117-3.037,2.8-4.155,4.54c-4.733,7.366-6.823,16.392-5.807,25.089
					c-1.744-1.777-4.938-1.3-6.695,0.465c-1.757,1.765-2.339,4.388-2.436,6.876c-0.232,5.982,2.062,12.123,6.524,16.113
					C432.678,354.836,448.878,343.403,454.828,331.241z"/>
				
					<path style="fill:none;stroke:#244E80;stroke-width:0.8504;stroke-linecap:round;stroke-linejoin:round;stroke-miterlimit:10;" d="
					M437.042,293.219c0,0-14.101,23.858-5.664,50.883"/>
				
					<path style="fill:none;stroke:#244E80;stroke-width:0.8504;stroke-linecap:round;stroke-linejoin:round;stroke-miterlimit:10;" d="
					M453.578,304.583c0,0-7.49,24.059-23.893,32.658"/>
				
					<path style="fill:none;stroke:#244E80;stroke-width:0.8504;stroke-linecap:round;stroke-linejoin:round;stroke-miterlimit:10;" d="
					M452.861,327.642c0,0-11.094,13.068-22.1,14.336"/>
				
					<path style="fill:none;stroke:#244E80;stroke-width:0.8504;stroke-linecap:round;stroke-linejoin:round;stroke-miterlimit:10;" d="
					M418.377,323.516c0,0,0.471,12.445,11.804,16.131"/>
				
					<path style="fill:none;stroke:#244E80;stroke-width:0.8504;stroke-linecap:round;stroke-linejoin:round;stroke-miterlimit:10;" d="
					M428.787,329.691c0,0,5.402-4.802,8.161-11.252"/>
				
					<path style="fill:none;stroke:#244E80;stroke-width:0.8504;stroke-linecap:round;stroke-linejoin:round;stroke-miterlimit:10;" d="
					M430.102,312.251c0,0-3.615-2.104-1.784-9.841"/>
				
					<path style="fill:none;stroke:#244E80;stroke-width:0.8504;stroke-linecap:round;stroke-linejoin:round;stroke-miterlimit:10;" d="
					M444.775,322.645c0,0-0.27-6.078,1.801-10.777"/>
				
					<path style="fill:none;stroke:#244E80;stroke-width:0.8504;stroke-linecap:round;stroke-linejoin:round;stroke-miterlimit:10;" d="
					M443.907,335.929c0,0-0.773-1.869,0.786-6.925"/>
				
					<path style="fill:none;stroke:#244E80;stroke-width:0.8504;stroke-linecap:round;stroke-linejoin:round;stroke-miterlimit:10;" d="
					M425.064,336.929c0,0-0.639,2.964-4.782,1.064"/>
			</g>
		</g>
		<g>
			<g>
				<path style="fill:#383838;" d="M407.729,350.313H80.787c-5.539,0-10.029-4.49-10.029-10.029v-180.89
					c0-5.539,4.49-10.029,10.029-10.029h326.942c5.539,0,10.029,4.49,10.029,10.029v180.89
					C417.758,345.823,413.268,350.313,407.729,350.313z"/>
				<rect x="82.054" y="159.865" style="fill:#FFFFFF;" width="324.409" height="179.949"/>
				<rect x="82.054" y="159.865" style="fill:#D7EFF9;" width="324.409" height="14.135"/>
				<rect x="84.091" y="176.031" style="fill:#D7EFF9;" width="65.74" height="161.363"/>
				<rect x="91.196" y="223.166" style="fill:#FFFFFF;" width="51.53" height="4.482"/>
				<rect x="91.196" y="256.551" style="fill:#FFFFFF;" width="51.53" height="4.482"/>
				<rect x="91.196" y="266.826" style="fill:#FFFFFF;" width="48.254" height="4.482"/>
				<rect x="91.196" y="277.101" style="fill:#FFFFFF;" width="16.398" height="4.482"/>
				<rect x="91.196" y="287.376" style="fill:#FFFFFF;" width="34.465" height="4.482"/>
				<g>
					<path style="fill:#E54C64;" d="M92.973,166.932c0,1.316-1.067,2.383-2.382,2.383c-1.316,0-2.382-1.067-2.382-2.383
						c0-1.316,1.067-2.383,2.382-2.383C91.907,164.55,92.973,165.617,92.973,166.932z"/>
					<path style="fill:#FBB040;" d="M101.778,166.932c0,1.316-1.067,2.383-2.382,2.383c-1.316,0-2.383-1.067-2.383-2.383
						c0-1.316,1.067-2.383,2.383-2.383C100.711,164.55,101.778,165.617,101.778,166.932z"/>
					<path style="fill:#8DC63F;" d="M110.583,166.932c0,1.316-1.067,2.383-2.382,2.383c-1.316,0-2.382-1.067-2.382-2.383
						c0-1.316,1.067-2.383,2.382-2.383C109.516,164.55,110.583,165.617,110.583,166.932z"/>
				</g>
				<path style="fill:#FFFFFF;" d="M396.54,169.315H142.705c-1.79,0-3.254-1.464-3.254-3.254l0,0c0-1.79,1.464-3.254,3.254-3.254
					H396.54c1.79,0,3.254,1.464,3.254,3.254l0,0C399.794,167.851,398.33,169.315,396.54,169.315z"/>
				<g>
					<path style="fill:#FFFFFF;" d="M117.643,200.078c-0.212,0.117-0.447,0.175-0.682,0.175c-0.244,0-0.488-0.063-0.707-0.189
						l-24.469-14.076c-0.366,0.611-0.589,1.315-0.589,2.075v21.545c0,2.244,1.836,4.08,4.08,4.08h43.37
						c2.244,0,4.08-1.836,4.08-4.08v-21.545c0-0.555-0.114-1.085-0.317-1.569L117.643,200.078z"/>
					<path style="fill:#FFFFFF;" d="M116.978,197.21l23.391-12.83c-0.526-0.248-1.105-0.397-1.722-0.397h-43.37
						c-0.358,0-0.7,0.062-1.032,0.15L116.978,197.21z"/>
				</g>
				<g>
					<path style="fill:#E54C64;" d="M145.094,212.427c0,2.61-2.116,4.726-4.726,4.726s-4.726-2.116-4.726-4.726
						s2.116-4.726,4.726-4.726S145.094,209.817,145.094,212.427z"/>
					<g>
						<path style="fill:#FFFFFF;" d="M141.388,209.79v5.661h-1.31v-4.61h-1.132v-1.051H141.388z"/>
					</g>
				</g>
				<path style="fill:none;stroke:#D7EFF9;stroke-miterlimit:10;" d="M399.294,193.711H154.337c-0.275,0-0.5-0.225-0.5-0.5v-16.68
					c0-0.275,0.225-0.5,0.5-0.5h244.958c0.275,0,0.5,0.225,0.5,0.5v16.68C399.794,193.486,399.569,193.711,399.294,193.711z"/>
				<rect x="153.837" y="199.838" style="fill:#D7EFF9;" width="245.958" height="12.589"/>
				<rect x="153.837" y="216.871" style="fill:#D7EFF9;" width="245.958" height="12.589"/>
				<rect x="153.837" y="233.905" style="fill:#D7EFF9;" width="245.958" height="12.589"/>
				<rect x="153.837" y="250.938" style="fill:#D7EFF9;" width="245.958" height="12.589"/>
				<rect x="153.837" y="267.971" style="fill:#D7EFF9;" width="245.958" height="12.589"/>
				<rect x="153.837" y="285.004" style="fill:#D7EFF9;" width="245.958" height="12.589"/>
				<rect x="153.837" y="302.038" style="fill:#D7EFF9;" width="245.958" height="12.589"/>
				<rect x="153.837" y="319.071" style="fill:#D7EFF9;" width="245.958" height="12.589"/>
			</g>
			<g>
				<g>
					<path style="fill:#FFFFFF;stroke:#1F74C2;stroke-miterlimit:10;" d="M337.319,261.21H145.795c-3.136,0-5.702-2.566-5.702-5.702
						v-32.695c0-3.136,2.566-5.702,5.702-5.702h191.523c3.136,0,5.702,2.566,5.702,5.702v32.695
						C343.021,258.644,340.455,261.21,337.319,261.21z"/>
					<path style="fill:#1F74C2;" d="M154.996,232.845h-9.755c-0.466,0-0.847-0.381-0.847-0.847v-9.756
						c0-0.466,0.381-0.847,0.847-0.847h9.755c0.466,0,0.847,0.381,0.847,0.847v9.756
						C155.843,232.464,155.462,232.845,154.996,232.845z"/>
					
						<line style="fill:#FFFFFF;stroke:#1F74C2;stroke-linecap:round;stroke-linejoin:round;stroke-miterlimit:10;" x1="158.264" y1="223.063" x2="181.206" y2="223.063"/>
					
						<line style="fill:#FFFFFF;stroke:#1F74C2;stroke-linecap:round;stroke-linejoin:round;stroke-miterlimit:10;" x1="158.264" y1="226.458" x2="253.873" y2="226.458"/>
					
						<line style="fill:#FFFFFF;stroke:#1F74C2;stroke-linecap:round;stroke-linejoin:round;stroke-miterlimit:10;" x1="158.264" y1="229.854" x2="206.069" y2="229.854"/>
					<g>
						
							<line style="fill:#FFFFFF;stroke:#1F74C2;stroke-linecap:round;stroke-linejoin:round;stroke-miterlimit:10;" x1="144.394" y1="238.725" x2="295.979" y2="238.725"/>
						
							<line style="fill:#FFFFFF;stroke:#1F74C2;stroke-linecap:round;stroke-linejoin:round;stroke-miterlimit:10;" x1="144.394" y1="243.606" x2="295.979" y2="243.606"/>
						
							<line style="fill:#FFFFFF;stroke:#1F74C2;stroke-linecap:round;stroke-linejoin:round;stroke-miterlimit:10;" x1="144.394" y1="248.486" x2="295.979" y2="248.486"/>
						
							<line style="fill:#FFFFFF;stroke:#1F74C2;stroke-linecap:round;stroke-linejoin:round;stroke-miterlimit:10;" x1="144.394" y1="253.366" x2="295.979" y2="253.366"/>
					</g>
				</g>
				<g>
					<path style="fill:#98C4E5;" d="M320.715,241.709c-0.156,0.086-0.329,0.129-0.502,0.129c-0.18,0-0.36-0.046-0.52-0.139
						l-18.024-10.368c-0.269,0.45-0.434,0.969-0.434,1.528v15.87c0,1.653,1.352,3.005,3.005,3.005h31.946
						c1.653,0,3.005-1.352,3.005-3.005v-15.87c0-0.409-0.084-0.799-0.234-1.156L320.715,241.709z"/>
					<path style="fill:#98C4E5;" d="M320.225,239.596l17.229-9.45c-0.387-0.183-0.814-0.293-1.269-0.293H304.24
						c-0.264,0-0.516,0.045-0.76,0.11L320.225,239.596z"/>
				</g>
			</g>
			<g>
				<g>
					<g>
						<path style="fill:#FFFFFF;" d="M238.278,293.793h-78.111c-1.279,0-2.326-1.047-2.326-2.326v-13.334
							c0-1.279,1.047-2.326,2.326-2.326h78.111c1.279,0,2.326,1.047,2.326,2.326v13.334
							C240.604,292.747,239.557,293.793,238.278,293.793z"/>
						<path style="fill:#1F74C2;" d="M238.278,293.997h-78.111c-1.395,0-2.53-1.135-2.53-2.53v-13.335
							c0-1.395,1.135-2.529,2.53-2.529h78.111c1.395,0,2.53,1.135,2.53,2.529v13.335
							C240.808,292.862,239.673,293.997,238.278,293.997z M160.167,276.012c-1.17,0-2.122,0.952-2.122,2.122v13.335
							c0,1.17,0.952,2.122,2.122,2.122h78.111c1.17,0,2.122-0.952,2.122-2.122v-13.335c0-1.17-0.952-2.122-2.122-2.122H160.167z"/>
					</g>
					<path style="fill:#1F74C2;" d="M163.919,282.225h-3.979c-0.19,0-0.346-0.155-0.346-0.345v-3.979
						c0-0.19,0.156-0.345,0.346-0.345h3.979c0.19,0,0.346,0.155,0.346,0.345v3.979C164.265,282.069,164.109,282.225,163.919,282.225
						z"/>
					<g>
						<line style="fill:#FFFFFF;" x1="165.252" y1="278.235" x2="196.835" y2="278.235"/>
						<path style="fill:#1F74C2;" d="M196.835,278.439h-31.583c-0.113,0-0.204-0.091-0.204-0.204s0.091-0.204,0.204-0.204h31.583
							c0.113,0,0.204,0.091,0.204,0.204S196.948,278.439,196.835,278.439z"/>
					</g>
					<g>
						<line style="fill:#FFFFFF;" x1="165.252" y1="279.62" x2="182.822" y2="279.62"/>
						<path style="fill:#1F74C2;" d="M182.822,279.824h-17.569c-0.113,0-0.204-0.091-0.204-0.204s0.091-0.204,0.204-0.204h17.569
							c0.113,0,0.204,0.091,0.204,0.204S182.934,279.824,182.822,279.824z"/>
					</g>
					<g>
						<line style="fill:#FFFFFF;" x1="165.252" y1="281.005" x2="204.048" y2="281.005"/>
						<path style="fill:#1F74C2;" d="M204.048,281.209h-38.796c-0.113,0-0.204-0.091-0.204-0.204c0-0.113,0.091-0.204,0.204-0.204
							h38.796c0.113,0,0.204,0.091,0.204,0.204C204.252,281.117,204.161,281.209,204.048,281.209z"/>
					</g>
					<g>
						<g>
							<line style="fill:#FFFFFF;" x1="159.595" y1="284.623" x2="221.418" y2="284.623"/>
							<path style="fill:#1F74C2;" d="M221.418,284.827h-61.823c-0.113,0-0.204-0.091-0.204-0.204c0-0.113,0.091-0.204,0.204-0.204
								h61.823c0.113,0,0.204,0.091,0.204,0.204C221.622,284.736,221.531,284.827,221.418,284.827z"/>
						</g>
						<g>
							<line style="fill:#FFFFFF;" x1="159.595" y1="286.613" x2="197.367" y2="286.613"/>
							<path style="fill:#1F74C2;" d="M197.367,286.817h-37.772c-0.113,0-0.204-0.091-0.204-0.204s0.091-0.204,0.204-0.204h37.772
								c0.113,0,0.204,0.091,0.204,0.204S197.48,286.817,197.367,286.817z"/>
						</g>
						<g>
							<line style="fill:#FFFFFF;" x1="159.595" y1="288.604" x2="217.766" y2="288.604"/>
							<path style="fill:#1F74C2;" d="M217.766,288.807h-58.171c-0.113,0-0.204-0.091-0.204-0.204s0.091-0.204,0.204-0.204h58.171
								c0.113,0,0.204,0.091,0.204,0.204S217.879,288.807,217.766,288.807z"/>
						</g>
						<g>
							<line style="fill:#FFFFFF;" x1="159.595" y1="290.594" x2="205.112" y2="290.594"/>
							<path style="fill:#1F74C2;" d="M205.112,290.798h-45.517c-0.113,0-0.204-0.091-0.204-0.204s0.091-0.204,0.204-0.204h45.517
								c0.113,0,0.204,0.091,0.204,0.204S205.225,290.798,205.112,290.798z"/>
						</g>
					</g>
				</g>
				<g>
					<path style="fill:#98C4E5;" d="M231.506,285.84c-0.064,0.035-0.134,0.052-0.205,0.052c-0.073,0-0.147-0.019-0.212-0.057
						l-7.351-4.229c-0.11,0.184-0.177,0.395-0.177,0.623v6.473c0,0.674,0.552,1.226,1.226,1.226h13.029
						c0.674,0,1.226-0.552,1.226-1.226v-6.473c0-0.167-0.034-0.326-0.095-0.471L231.506,285.84z"/>
					<path style="fill:#98C4E5;" d="M231.306,284.978l7.027-3.854c-0.158-0.074-0.332-0.119-0.517-0.119h-13.029
						c-0.108,0-0.21,0.018-0.31,0.045L231.306,284.978z"/>
				</g>
			</g>
			<g>
				<g>
					<g>
						<path style="fill:#FFFFFF;" d="M342.129,319.864h-99.993c-1.638,0-2.977-1.34-2.977-2.977v-17.07
							c0-1.637,1.34-2.977,2.977-2.977h99.993c1.637,0,2.977,1.34,2.977,2.977v17.07
							C345.106,318.524,343.766,319.864,342.129,319.864z"/>
						<path style="fill:#1F74C2;" d="M342.129,320.125h-99.993c-1.786,0-3.238-1.453-3.238-3.239v-17.069
							c0-1.786,1.453-3.239,3.238-3.239h99.993c1.786,0,3.239,1.453,3.239,3.239v17.069
							C345.367,318.672,343.915,320.125,342.129,320.125z M242.136,297.1c-1.498,0-2.716,1.219-2.716,2.716v17.069
							c0,1.498,1.218,2.717,2.716,2.717h99.993c1.498,0,2.717-1.219,2.717-2.717v-17.069c0-1.498-1.219-2.716-2.717-2.716H242.136z"
							/>
					</g>
					<path style="fill:#1F74C2;" d="M246.94,305.055h-5.093c-0.243,0-0.442-0.199-0.442-0.442v-5.093
						c0-0.243,0.199-0.442,0.442-0.442h5.093c0.243,0,0.442,0.199,0.442,0.442v5.093
						C247.382,304.855,247.183,305.055,246.94,305.055z"/>
					<g>
						<line style="fill:#FFFFFF;" x1="248.646" y1="299.947" x2="289.076" y2="299.947"/>
						<path style="fill:#1F74C2;" d="M289.076,300.208h-40.43c-0.144,0-0.261-0.117-0.261-0.261c0-0.144,0.117-0.261,0.261-0.261
							h40.43c0.144,0,0.261,0.117,0.261,0.261C289.337,300.092,289.221,300.208,289.076,300.208z"/>
					</g>
					<g>
						<line style="fill:#FFFFFF;" x1="248.646" y1="301.72" x2="291.538" y2="301.72"/>
						<path style="fill:#1F74C2;" d="M291.538,301.981h-42.892c-0.144,0-0.261-0.117-0.261-0.261c0-0.144,0.117-0.261,0.261-0.261
							h42.892c0.144,0,0.261,0.117,0.261,0.261C291.799,301.864,291.682,301.981,291.538,301.981z"/>
					</g>
					<g>
						<line style="fill:#FFFFFF;" x1="248.646" y1="303.493" x2="298.31" y2="303.493"/>
						<path style="fill:#1F74C2;" d="M298.31,303.753h-49.664c-0.144,0-0.261-0.117-0.261-0.261s0.117-0.261,0.261-0.261h49.664
							c0.144,0,0.261,0.117,0.261,0.261S298.455,303.753,298.31,303.753z"/>
					</g>
					<g>
						<g>
							<line style="fill:#FFFFFF;" x1="241.404" y1="308.125" x2="320.546" y2="308.125"/>
							<path style="fill:#1F74C2;" d="M320.546,308.385h-79.142c-0.144,0-0.261-0.117-0.261-0.261c0-0.144,0.117-0.261,0.261-0.261
								h79.142c0.144,0,0.261,0.117,0.261,0.261C320.807,308.269,320.69,308.385,320.546,308.385z"/>
						</g>
						<g>
							<line style="fill:#FFFFFF;" x1="241.404" y1="310.672" x2="305.809" y2="310.672"/>
							<path style="fill:#1F74C2;" d="M305.809,310.934h-64.405c-0.144,0-0.261-0.117-0.261-0.261s0.117-0.261,0.261-0.261h64.405
								c0.144,0,0.261,0.117,0.261,0.261S305.953,310.934,305.809,310.934z"/>
						</g>
						<g>
							<line style="fill:#FFFFFF;" x1="241.404" y1="313.22" x2="298.883" y2="313.22"/>
							<path style="fill:#1F74C2;" d="M298.883,313.482h-57.479c-0.144,0-0.261-0.117-0.261-0.261s0.117-0.261,0.261-0.261h57.479
								c0.144,0,0.261,0.117,0.261,0.261S299.028,313.482,298.883,313.482z"/>
						</g>
						<g>
							<line style="fill:#FFFFFF;" x1="241.404" y1="315.768" x2="315.358" y2="315.768"/>
							<path style="fill:#1F74C2;" d="M315.358,316.03h-73.953c-0.144,0-0.261-0.117-0.261-0.261c0-0.144,0.117-0.261,0.261-0.261
								h73.953c0.144,0,0.261,0.117,0.261,0.261C315.619,315.913,315.502,316.03,315.358,316.03z"/>
						</g>
					</g>
				</g>
				<g>
					<path style="fill:#98C4E5;" d="M333.46,309.682c-0.082,0.045-0.172,0.067-0.262,0.067c-0.094,0-0.188-0.024-0.272-0.073
						l-9.41-5.413c-0.141,0.235-0.227,0.506-0.227,0.798v8.286c0,0.863,0.706,1.569,1.569,1.569h16.679
						c0.863,0,1.569-0.706,1.569-1.569v-8.286c0-0.214-0.044-0.417-0.122-0.603L333.46,309.682z"/>
					<path style="fill:#98C4E5;" d="M333.204,308.579l8.995-4.934c-0.202-0.095-0.425-0.153-0.662-0.153h-16.679
						c-0.138,0-0.269,0.024-0.397,0.057L333.204,308.579z"/>
				</g>
			</g>
		</g>
		<g>
			<g>
				<path style="fill:#EEB399;" d="M385.843,244.324c-0.213-0.332-0.458-0.655-0.787-0.873c-0.432-0.285-0.965-0.363-1.481-0.403
					c-1.053-0.082-2.115-0.037-3.157,0.135c-1.252,0.206-2.566,0.658-3.291,1.699c-0.168,0.241-0.301,0.515-0.327,0.808
					c-0.025,0.293,0.07,0.606,0.294,0.796c0.256,0.216,0.619,0.238,0.954,0.248c0.573,0.019,1.146,0.037,1.718,0.056
					c-0.071,1.069-0.067,2.143,0.011,3.211c0.083,1.142,0.299,2.374,1.137,3.155c0.745,0.695,1.856,0.882,2.862,0.723
					c1.06-0.169,2.066-0.698,2.774-1.505c0.707-0.807,1.102-1.891,1.037-2.963c-0.056-0.924-0.487-1.697-0.689-2.569
					C386.692,245.95,386.338,245.095,385.843,244.324z"/>
				
					<path style="fill:none;stroke:#B56B4E;stroke-width:0.2835;stroke-linecap:round;stroke-linejoin:round;stroke-miterlimit:10;" d="
					M379.813,249.932c0.025,0.508,0.056,1.022,0.212,1.506c0.079,0.245,0.193,0.486,0.378,0.665c0.306,0.298,0.76,0.387,1.187,0.393
					c0.306,0.004,0.637-0.038,0.863-0.245c0.088-0.08,0.155-0.182,0.209-0.287c0.272-0.528,0.235-1.2-0.092-1.695"/>
				
					<path style="fill:none;stroke:#B56B4E;stroke-width:0.2835;stroke-linecap:round;stroke-linejoin:round;stroke-miterlimit:10;" d="
					M383.344,245.423c-0.471,0.27-0.99,0.455-1.525,0.546c-0.41,0.069-0.831,0.084-1.228,0.207
					c-0.397,0.122-0.783,0.379-0.922,0.771c-0.208,0.586,0.211,1.222,0.724,1.572c0.746,0.509,1.735,0.645,2.591,0.355
					c0.005,0.499,0.242,0.991,0.629,1.306c0.387,0.315,0.917,0.447,1.407,0.351"/>
				
					<path style="fill:none;stroke:#B56B4E;stroke-width:0.2835;stroke-linecap:round;stroke-linejoin:round;stroke-miterlimit:10;" d="
					M379.763,248.032c-0.087,0.444-0.111,0.907-0.014,1.349c0.096,0.443,0.318,0.865,0.664,1.158
					c0.345,0.293,0.82,0.444,1.264,0.355c0.251-0.05,0.486-0.174,0.669-0.353c0.084-0.082,0.157-0.175,0.216-0.275
					c0.222-0.376,0.242-0.864,0.052-1.257"/>
			</g>
			<path style="fill:#EA9E39;" d="M423.142,248.427c-1.914-2.48-5.475-2.936-7.952-1.025l-13.572,10.476l-14.296-11.19
				c-6.985,3.768-6.988,8.928-6.988,8.928l17.766,13.907c1.025,0.804,2.26,1.205,3.494,1.205c1.222,0,2.443-0.393,3.464-1.181
				l17.061-13.168C424.596,254.466,425.055,250.905,423.142,248.427z"/>
			<g>
				<path style="fill:#ECDEFF;" d="M381.54,382.587c0,1.606,13.609,2.909,30.397,2.909s30.397-1.302,30.397-2.909
					c0-1.606-13.609-2.909-30.397-2.909S381.54,380.981,381.54,382.587z"/>
				<g>
					<g>
						<g>
							<g>
								<path style="fill:#383838;" d="M375.439,251.733l-6.212,2.64c-0.253,0.108-0.548-0.011-0.656-0.265l-5.416-12.744
									c-0.108-0.253,0.012-0.548,0.265-0.656l6.212-2.64c0.253-0.107,0.548,0.011,0.656,0.265l5.416,12.744
									C375.812,251.331,375.693,251.626,375.439,251.733z"/>
								
									<rect x="365.79" y="239.571" transform="matrix(0.9203 -0.3912 0.3912 0.9203 -66.6602 163.9809)" style="fill:#27AAE1;" width="6.761" height="12.08"/>
								<path style="fill:#070707;" d="M372.545,251.836c0.145,0.341-0.014,0.735-0.355,0.88c-0.341,0.145-0.735-0.014-0.88-0.355
									c-0.145-0.341,0.014-0.735,0.355-0.88S372.4,251.495,372.545,251.836z"/>
							</g>
							<path style="fill:#EEB399;" d="M366.586,255.052c-0.261-1.418-0.248-2.934,0.366-4.238c0.614-1.304,1.919-2.343,3.361-2.343
								c0.788,0,1.663,0.415,1.839,1.183c0.132,0.574-0.175,1.177-0.621,1.562c-0.446,0.384-1.013,0.594-1.566,0.796
								c0.694,0.21,1.188,0.863,1.376,1.563c0.188,0.7,0.114,1.444-0.021,2.156c-0.185,0.976-1.015,3.878-2.465,3.643
								C367.532,259.16,366.779,256.096,366.586,255.052z"/>
							<path style="fill:#171E26;" d="M410.558,380.132v2.123c0,0-10.659,1.029-17.919,0l2.61-2.123H410.558z"/>
							<path style="fill:#171E26;" d="M431.729,380.132v2.123c0,0-10.659,1.029-17.919,0l2.61-2.123H431.729z"/>
							<g>
								<g>
									<polygon style="fill:#EEB399;" points="415.879,234.73 417.39,243.919 413.791,248.471 409.266,246.641 408.357,241.115 
																			"/>
								</g>
								<path style="fill:#EEB399;" d="M411.027,244.131l-3.138,0.516c-3.426,0.564-6.691-1.778-7.255-5.205l-1.619-9.842
									c-0.564-3.426,1.778-6.69,5.204-7.254l3.138-0.516c3.426-0.564,6.691,1.778,7.255,5.205l1.619,9.842
									C416.796,240.303,414.453,243.568,411.027,244.131z"/>
								<path style="fill:#171C27;" d="M409.054,240.099c-1.391-1.031-2.212-2.64-2.977-4.194c-0.125-0.254-0.253-0.522-0.241-0.804
									c0.011-0.279,0.156-0.532,0.282-0.781c0.306-0.605,0.522-1.291,0.392-1.956c-0.13-0.665-0.695-1.279-1.372-1.277
									c-0.796,0.002-1.384,0.838-1.412,1.634s0.346,1.543,0.711,2.25c-0.697,0.504-1.689-0.221-1.944-1.042
									c-0.255-0.821-0.116-1.728-0.385-2.545c-0.435-1.323-1.785-2.068-2.836-2.982c-1.051-0.914-1.869-2.555-0.988-3.634
									c0.364-0.446,0.934-0.666,1.375-1.037c0.744-0.627,1.064-1.635,1.753-2.322c0.484-0.483,1.121-0.78,1.76-1.023
									c3.839-1.46,8.707-1.038,11.36,2.098c2.002,2.366,2.346,5.672,2.604,8.76c0.215,2.583,1.125,6.587-1.108,8.479
									C414.134,241.326,411.085,241.605,409.054,240.099z"/>
							</g>
							<path style="fill:#171E26;" d="M395.512,288.767l-0.262,91.365c0,0,9.939,1.142,15.309,0l1.602-78.017l3.767,78.525
								c0,0,9.632,0.622,15.801,0l-6.426-89.265L395.512,288.767z"/>
							<path style="fill:#FBB040;" d="M395.989,254.935c-0.123,0.553-0.22,1.113-0.301,1.672c-0.25,1.729-0.508,3.421-0.671,5.163
								c-0.367,3.914-0.67,7.835-0.829,11.763c-0.185,4.553-0.175,9.118,0.157,13.665c0.306,4.186,1.992,5.243,5.935,6.594
								c3.403,1.166,7.092,1.582,10.67,1.725c3.005,0.12,13.032,0.047,14.353-4.142c0.429-1.359-1.052-4.467-1.299-5.927
								c-0.337-2.001-0.519-4.028-0.544-6.057c-0.048-3.922,0.488-7.853,1.612-11.611c1.585-5.297,4.693-10.153,2.004-15.493
								c-2.736-5.435-9.078-7.036-14.715-7.113c-2.913-0.04-5.882,0.189-8.667,1.097c-1.386,0.452-2.571,1.01-3.652,1.985
								c-1.103,0.996-2.134,2.099-2.862,3.404C396.609,252.683,396.242,253.796,395.989,254.935z"/>
							
								<path style="fill:none;stroke:#5077B5;stroke-width:0.5669;stroke-linecap:round;stroke-linejoin:round;stroke-miterlimit:10;" d="
								M421.214,297.56c0,0-6.759,7.349-18.885,4.042"/>
							<path style="fill:#FBB040;" d="M374.81,250.629l11.443,8.292l13.939-10.767c2.34-1.809,5.703-1.377,7.512,0.964
								c1.808,2.34,1.376,5.704-0.964,7.512l-17.11,13.217c-0.963,0.744-2.118,1.117-3.274,1.117c-1.101,0-2.204-0.339-3.142-1.018
								l-14.687-10.643C369.145,254.498,374.81,250.629,374.81,250.629z"/>
							
								<path style="fill:none;stroke:#5077B5;stroke-width:0.5669;stroke-linecap:round;stroke-linejoin:round;stroke-miterlimit:10;" d="
								M410.357,375.374c0,0-8.126,1.364-14.66,0"/>
							
								<path style="fill:none;stroke:#5077B5;stroke-width:0.5669;stroke-linecap:round;stroke-linejoin:round;stroke-miterlimit:10;" d="
								M431.02,375.374c0,0-9.535,1.368-14.937,0"/>
						</g>
						<path style="fill:#CE892E;" d="M394.652,265.966l7.677-5.93c0,0-6.3,7.731-8.097,12.483
							C394.232,272.52,394.256,269.582,394.652,265.966z"/>
						<path style="fill:#DD9637;" d="M406.838,244.78c1.836-0.77,3.878-0.846,5.868-0.882c2.866-0.052,5.735-0.042,8.599,0.066
							c1.118,0.042,2.353,0.151,3.121,0.963c0.357,0.377,0.571,0.872,0.687,1.379c0.329,1.437-0.087,2.934-0.587,4.32
							c-0.42,1.163-0.902,2.302-1.443,3.413c-0.438,0.899-0.925,1.791-1.625,2.504c-0.701,0.713-1.647,1.235-2.647,1.234
							c-0.706-0.001-1.384-0.257-2.033-0.535c-3.547-1.521-6.754-3.828-9.324-6.708C406.089,249.006,404.024,245.96,406.838,244.78z
							"/>
					</g>
				</g>
			</g>
			<g>
				<g>
					<circle style="fill:#1F74C2;" cx="353.355" cy="216.122" r="17.901"/>
					<polygon style="fill:#1F74C2;" points="358.66,231.413 366.425,238.011 364.538,227.094 					"/>
				</g>
				<g>
					<path style="fill:#FFFFFF;" d="M353.784,216.883c-0.079,0.044-0.167,0.065-0.255,0.065c-0.091,0-0.182-0.024-0.264-0.071
						l-9.138-5.257c-0.137,0.228-0.22,0.491-0.22,0.775v8.046c0,0.838,0.686,1.524,1.524,1.524h16.197
						c0.838,0,1.524-0.686,1.524-1.524v-8.046c0-0.207-0.043-0.405-0.118-0.586L353.784,216.883z"/>
					<path style="fill:#FFFFFF;" d="M353.536,215.812l8.736-4.791c-0.196-0.093-0.413-0.148-0.643-0.148h-16.197
						c-0.134,0-0.261,0.023-0.385,0.056L353.536,215.812z"/>
				</g>
				<g>
					<circle style="fill:#E54C64;" cx="365.258" cy="224.09" r="6.244"/>
					<g>
						<path style="fill:#FFFFFF;" d="M366.605,220.607v7.48h-1.731v-6.091h-1.496v-1.389H366.605z"/>
					</g>
				</g>
			</g>
		</g>
		<g>
			<g>
				<path d="M114.715,388.163l-0.581,3.441c0,0-8.01-7.224-9.913-11.328l4.095-0.972L114.715,388.163z"/>
				<path d="M125.669,391.014l2.076,3.644c0,0,5.722-11.652,5.051-16.192l-2.298-0.812L125.669,391.014z"/>
				<path style="fill:#171E26;" d="M97.212,363.439c0,0-0.215,13.09,17.57,11.382c17.786-1.708,12.685-14.593,12.685-14.593
					L97.212,363.439z"/>
				<path style="fill:#171C27;" d="M115.127,291.297c0,0-7.079-1.037-11.273,6.801c-4.194,7.838,0.372,8.716-6.207,14.655
					c-6.579,5.939-5.721,14.922,4.558,15.217c10.279,0.295,20.517,5.963,23.434-3.564c0,0,1.949-4.222-0.961-7.88
					c-2.91-3.657-2.072-6.569-0.936-10.034c1.136-3.465,2.538-7.007-0.062-9.805C121.08,293.89,115.127,291.297,115.127,291.297z"/>
				<path style="fill:#9B2C49;" d="M125.523,324.935c0.15,1.098,0.058,2.243-0.174,3.574c-0.895,5.134-1.246,10.391-0.662,15.582
					c0.429,3.805,1.428,7.427,2.856,10.971c0.879,2.182,1.692,4.134,0.034,6.162c-3.297,4.032-11.48,5.317-16.26,5.686
					c-3.052,0.236-13.253,0.543-14.756-3.669c-0.488-1.366,0.901-4.584,1.096-6.078c0.267-2.048,0.375-4.117,0.323-6.181
					c-0.1-3.991-0.794-7.969-2.081-11.749c-1.813-5.328-5.158-10.149-2.626-15.683c2.577-5.632,8.967-7.501,14.698-7.793
					c5.737-0.293,12.884,0.609,16.281,5.897C124.984,322.792,125.374,323.84,125.523,324.935z"/>
				<path style="fill:#EACFC5;" d="M101.659,316.815c2.048-0.632,4.223-0.952,6.312-1.058c2.247-0.115,4.708-0.04,7.077,0.403
					c0.689,5.007-2.589,20.545-2.589,20.545C110.012,328.987,101.691,316.861,101.659,316.815z"/>
				<g>
					<path style="fill:#A05E47;" d="M114.481,312.618l-0.521,5.889c0,0-0.29,2.824-4.619,2.283
						c-4.328-0.542-4.148-4.508-4.148-4.508l0.867-9.792L114.481,312.618z"/>
					<path style="fill:#774233;" d="M106.845,311.536l7.447,3.221l-0.277,3.134C109.784,316.94,106.845,311.536,106.845,311.536z"/>
					<path style="fill:#A05E47;" d="M111.558,315.973l4.045,0.358c3.459,0.306,6.539-2.273,6.845-5.732l0.991-11.189
						c0.306-3.459-2.273-6.539-5.732-6.845l-4.045-0.358c-3.459-0.306-6.539,2.273-6.845,5.732l-0.991,11.189
						C105.52,312.586,108.099,315.667,111.558,315.973z"/>
					<path style="fill:#A05E47;" d="M104.222,305.191c-0.1,1.125,0.732,2.118,1.857,2.218c1.125,0.1,2.118-0.732,2.218-1.857
						c0.1-1.125-0.732-2.118-1.857-2.218C105.314,303.234,104.321,304.066,104.222,305.191z"/>
				</g>
				<path style="fill:#171C27;" d="M123.68,296.688c0,0-7.534,8.459-17.938,6.584c0,0-0.854-12.795,9.385-11.975
					C115.127,291.297,119.921,291.446,123.68,296.688z"/>
				<path style="fill:#171E26;" d="M78.465,363.648c0.922-3.385,4.181-5.586,7.667-5.175l26.847,3.166
					c3.886,0.459,6.666,3.982,6.208,7.869c-0.119,1.007-0.444,1.94-0.928,2.762l13.118,5.771c0,0-1.721,8.286-5.708,12.973
					l-43.22-19.017C79.237,370.585,77.543,367.033,78.465,363.648z"/>
				<path style="fill:#171E26;" d="M112.202,372.808c-0.627-0.747-1.109-1.637-1.391-2.637c-1.06-3.768,1.134-7.681,4.903-8.741
					l24.595-6.92c3.359-0.947,6.902,0.693,8.357,3.862c1.457,3.169,0.391,6.926-2.511,8.859l-31.44,20.932
					c0,0-6.341-5.405-7.855-11.797L112.202,372.808z"/>
				
					<path style="fill:none;stroke:#1A2F44;stroke-width:0.2835;stroke-linecap:round;stroke-linejoin:round;stroke-miterlimit:10;" d="
					M131.377,378.041l-13.118-5.771c0,0-9.28-3.942-16.897-5.158"/>
				
					<path style="fill:none;stroke:#1A2F44;stroke-width:0.2835;stroke-linecap:round;stroke-linejoin:round;stroke-miterlimit:10;" d="
					M115.991,371.31c0,0,5.808-4.646,18.27-9.473"/>
				
					<line style="fill:none;stroke:#1A2F44;stroke-width:0.2835;stroke-linecap:round;stroke-linejoin:round;stroke-miterlimit:10;" x1="125.669" y1="391.014" x2="93.269" y2="376.758"/>
				<path style="fill:#6D1D35;" d="M102.865,330.582c0,0-5.287,13.75,1.643,24.432l-5.729,0.053c0,0-3.917-10.37-2.88-15.835
					C96.937,333.767,102.865,330.582,102.865,330.582z"/>
				<path style="fill:#9B2C49;" d="M86.965,341.67l6.399-18.264c1.035-2.956,4.27-4.509,7.225-3.476
					c2.955,1.035,4.511,4.27,3.476,7.225l-5.32,15.184l10.938,12.788c0,0-2.53,3.883-8.616,7.371L88.008,347.23
					C86.695,345.695,86.298,343.577,86.965,341.67z"/>
				<path style="fill:#6D1D35;" d="M116.681,330.951c0,0,4.48,12.171,1.14,24.678l6.99-0.77
					C124.811,354.858,130.452,336.885,116.681,330.951z"/>
				<path style="fill:#9B2C49;" d="M119.514,354.389l2.65-12.963l-6.985-13.346c-1.452-2.775-0.381-6.201,2.393-7.652
					c2.776-1.456,6.201-0.381,7.652,2.393l7.921,15.134c0.606,1.156,0.794,2.487,0.532,3.765l-3.054,14.94
					C130.623,356.661,124.138,358.083,119.514,354.389z"/>
				<g>
					<path style="fill:#D1D3D4;" d="M96.422,368.083l38.262-4.215c0.584-0.064,1.005-0.59,0.941-1.174l-0.66-19.644
						c-0.064-0.584-0.59-1.005-1.173-0.941l-41.061,4.524c-0.584,0.064-1.005,0.59-0.941,1.173l3.458,19.336
						C95.313,367.726,95.839,368.147,96.422,368.083z"/>
					<path style="fill:#BDC0C1;" d="M134.684,363.868l-38.262,4.215c-0.584,0.064-1.109-0.357-1.174-0.941l-3.103-17.351
						c8.071,4.186,21.695,8.439,43.31,7.85l0.17,5.052C135.689,363.278,135.268,363.803,134.684,363.868z"/>
					<g>
						<path style="fill:#FFFFFF;" d="M115.199,351.894c0.416,0.237,0.711,0.677,0.772,1.152c0.072,0.563-0.164,1.114-0.242,1.676
							c-0.121,0.871,0.163,1.789,0.755,2.44c0.176,0.194,0.385,0.376,0.467,0.624c0.114,0.344-0.059,0.739-0.351,0.953
							c-0.292,0.214-0.676,0.269-1.036,0.228c-1.104-0.126-1.946-1.045-2.525-1.993c-0.526-0.861-0.936-1.84-0.879-2.847
							C112.237,352.754,113.72,351.05,115.199,351.894z"/>
						<path style="fill:#FFFFFF;" d="M114.642,351.388c0.052,0.081,0.095,0.155,0.194,0.162c0.103,0.007,0.208-0.063,0.261-0.146
							c0.061-0.097,0.076-0.214,0.089-0.328c0.029-0.259,0.034-0.525,0.038-0.784c0.004-0.246-0.032-0.502-0.172-0.71
							c-0.193-0.288-0.65-0.415-0.892-0.168c-0.216,0.22-0.155,0.582-0.054,0.872C114.241,350.672,114.421,351.043,114.642,351.388z
							"/>
					</g>
				</g>
			</g>
			<g>
				<g>
					
						<ellipse transform="matrix(0.2315 -0.9728 0.9728 0.2315 -193.5141 389.3848)" style="fill:#1F74C2;" cx="149.709" cy="317.179" rx="17.901" ry="17.901"/>
					<g>
						<path style="fill:#FFFFFF;" d="M144.507,317.179c0,1.467-1.189,2.656-2.656,2.656c-1.467,0-2.656-1.189-2.656-2.656
							c0-1.467,1.189-2.657,2.656-2.657C143.317,314.523,144.507,315.712,144.507,317.179z"/>
						<path style="fill:#FFFFFF;" d="M152.488,317.179c0,1.467-1.189,2.656-2.657,2.656c-1.467,0-2.656-1.189-2.656-2.656
							c0-1.467,1.189-2.657,2.656-2.657C151.299,314.523,152.488,315.712,152.488,317.179z"/>
						<path style="fill:#FFFFFF;" d="M160.469,317.179c0,1.467-1.189,2.656-2.656,2.656c-1.467,0-2.656-1.189-2.656-2.656
							c0-1.467,1.189-2.657,2.656-2.657C159.28,314.523,160.469,315.712,160.469,317.179z"/>
					</g>
					<polygon style="fill:#1F74C2;" points="137.82,328.835 136.015,338.863 144.507,331.749 					"/>
				</g>
				<g>
					<path style="fill:#E54C64;" d="M167.855,325.148c0,3.448-2.796,6.244-6.244,6.244s-6.244-2.796-6.244-6.244
						c0-3.448,2.795-6.244,6.244-6.244S167.855,321.7,167.855,325.148z"/>
					<g>
						<path style="fill:#FFFFFF;" d="M162.958,321.664v7.48h-1.731v-6.091h-1.496v-1.389H162.958z"/>
					</g>
				</g>
			</g>
		</g>
		<g>
			<g>
				<g>
					<polygon style="fill:#1F74C2;" points="374.173,109.171 316.562,125.93 330.004,130.141 					"/>
					<polygon style="fill:#0D4772;" points="330.004,130.141 333.79,140.431 374.173,109.171 					"/>
					<polygon style="fill:#1F74C2;" points="331.033,130.697 374.173,109.171 353.32,134.143 					"/>
				</g>
			</g>
			
				<path style="fill:none;stroke:#1F74C2;stroke-linecap:round;stroke-linejoin:round;stroke-miterlimit:10;stroke-dasharray:2.8347;" d="
				M143.321,195.54c25.682,2.775,52.953-2.465,73.33-18.34c9.037-7.041,16.849-16.699,18.24-28.07
				c0.556-4.545-0.322-9.855-4.183-12.317c-1.902-1.212-4.246-1.529-6.501-1.476c-7.083,0.167-13.993,3.898-18.017,9.73
				c-4.024,5.831-5.061,13.616-2.703,20.297c2.391,6.776,7.987,12.104,14.428,15.289s13.686,4.411,20.86,4.809
				c35.132,1.952,70.662-16.632,89.097-46.602"/>
		</g>
	</g>
</g>
<g id="Designed_by_freepik">
	<g>
		<g id="XMLID_1_">
			<g id="XMLID_20_">
				<path id="XMLID_28_" style="fill:#112129;" d="M260.104,466.12c-0.432,0.443-0.803,0.931-1.108,1.453l-0.465-0.241
					c-0.067-0.298-0.349-0.503-0.659-0.466c-0.331,0.039-0.568,0.339-0.529,0.67c0.039,0.331,0.339,0.568,0.67,0.529
					c0.066-0.008,0.127-0.026,0.184-0.052l0.451,0.234c-0.251,0.554-0.433,1.139-0.539,1.744l0.747,0.132
					c0.23-1.306,0.85-2.507,1.792-3.473L260.104,466.12z"/>
				<path id="XMLID_27_" style="fill:#112129;" d="M265.592,463.818c-0.171,0-0.341,0.006-0.51,0.017l-0.074-0.626
					c0.188-0.149,0.296-0.389,0.266-0.645c-0.046-0.393-0.402-0.674-0.795-0.628c-0.393,0.046-0.674,0.402-0.628,0.795
					c0.03,0.254,0.189,0.461,0.404,0.564l0.074,0.624c-0.714,0.116-1.403,0.332-2.06,0.646l0.327,0.684
					c0.934-0.447,1.942-0.673,2.995-0.673c0.496,0,0.993,0.053,1.475,0.158l0.161-0.741
					C266.692,463.877,266.142,463.818,265.592,463.818z"/>
				<path id="XMLID_26_" style="fill:#112129;" d="M272.194,466.366c0.331-0.04,0.566-0.342,0.526-0.672
					c-0.04-0.331-0.341-0.566-0.672-0.526c-0.309,0.038-0.535,0.304-0.53,0.609l-0.416,0.363c-0.418-0.43-0.889-0.813-1.408-1.139
					l-0.404,0.641c1.134,0.715,2.021,1.726,2.563,2.925l0.69-0.313c-0.251-0.554-0.567-1.072-0.942-1.545l0.402-0.351
					C272.065,466.37,272.129,466.374,272.194,466.366z"/>
				<path id="XMLID_25_" style="fill:#112129;" d="M265.044,474.027c-0.386,0.023-0.775,0.035-1.157,0.035
					c-0.88,0-1.733-0.061-2.478-0.179c-0.39-0.062-0.846-0.155-1.27-0.292c1.046,1.861,3.069,3.125,5.388,3.125
					c2.855,0,5.262-1.916,5.95-4.504c-0.682,0.449-1.505,0.825-2.459,1.123C267.839,473.702,266.463,473.941,265.044,474.027z"/>
				<path id="XMLID_21_" style="fill:#112129;" d="M265.592,465.334c-3.352,0-6.08,2.666-6.08,5.943
					c0,0.426,0.046,0.849,0.137,1.261c0.673,0.483,2.706,0.89,5.348,0.731c2.879-0.173,5.297-0.957,6.672-2.159
					c-0.006-0.195-0.021-0.39-0.045-0.582C271.244,467.568,268.65,465.334,265.592,465.334z M263.432,471.849
					c-1.02,0-1.85-0.83-1.85-1.85c0-1.02,0.83-1.85,1.85-1.85c1.02,0,1.85,0.83,1.85,1.85
					C265.282,471.02,264.452,471.849,263.432,471.849z M268.17,470.941c-0.75,0-1.36-0.61-1.36-1.36c0-0.75,0.61-1.361,1.36-1.361
					c0.75,0,1.361,0.61,1.361,1.361C269.53,470.331,268.92,470.941,268.17,470.941z"/>
			</g>
			<path id="XMLID_18_" style="fill:#112129;" d="M281.595,467.202c-0.295-0.116-0.805-0.309-1.382-0.237
				c-0.551,0.069-0.844,0.341-0.844,1.007v0.866h2.228v1.717h-2.228v5.455h-1.932v-5.455h-1.34v-1.717h1.34v-0.888
				c0-1.68,0.896-2.783,2.568-2.783c0.643,0,1.157,0.122,1.59,0.308L281.595,467.202z"/>
			<path id="XMLID_16_" style="fill:#112129;" d="M286.298,470.534c-0.177-0.03-0.358-0.046-0.526-0.046
				c-0.896,0-1.51,0.548-1.51,1.613v3.908h-1.932v-7.172h1.873v0.785c0.451-0.673,1.14-0.977,2.021-0.977
				c0.414,0,0.848,0.128,1.094,0.337L286.298,470.534z"/>
			<path id="XMLID_13_" style="fill:#112129;" d="M293.965,472.412c0,0.222-0.015,0.489-0.037,0.651h-5.085
				c0.207,1.036,0.933,1.488,1.843,1.488c0.622,0,1.295-0.252,1.813-0.688l1.133,1.243c-0.814,0.748-1.85,1.088-3.057,1.088
				c-2.198,0-3.723-1.495-3.723-3.753c0-2.258,1.48-3.797,3.627-3.797C292.544,468.644,293.958,470.177,293.965,472.412z
				 M288.851,471.746h3.175c-0.177-0.918-0.733-1.436-1.562-1.436C289.554,470.31,289.021,470.858,288.851,471.746z"/>
			<path id="XMLID_10_" style="fill:#112129;" d="M301.618,472.412c0,0.222-0.015,0.489-0.037,0.651h-5.085
				c0.207,1.036,0.933,1.488,1.843,1.488c0.622,0,1.295-0.252,1.814-0.688l1.132,1.243c-0.814,0.748-1.85,1.088-3.057,1.088
				c-2.198,0-3.723-1.495-3.723-3.753c0-2.258,1.48-3.797,3.627-3.797C300.197,468.644,301.611,470.177,301.618,472.412z
				 M296.504,471.746h3.175c-0.178-0.918-0.733-1.436-1.562-1.436C297.207,470.31,296.674,470.858,296.504,471.746z"/>
			<path id="XMLID_7_" style="fill:#112129;" d="M309.964,472.419c0,2.154-1.495,3.775-3.471,3.775
				c-0.962,0-1.643-0.378-2.109-0.933v3.708h-1.924v-10.133h1.887v0.792c0.466-0.585,1.155-0.984,2.139-0.984
				C308.469,468.644,309.964,470.265,309.964,472.419z M304.287,472.419c0,1.132,0.748,1.976,1.843,1.976
				c1.14,0,1.85-0.881,1.85-1.976c0-1.095-0.71-1.976-1.85-1.976C305.035,470.443,304.287,471.287,304.287,472.419z"/>
			<path id="XMLID_4_" style="fill:#112129;" d="M313.068,466.491c0,0.696-0.54,1.229-1.236,1.229c-0.696,0-1.229-0.533-1.229-1.229
				c0-0.696,0.533-1.243,1.229-1.243C312.527,465.247,313.068,465.795,313.068,466.491z M312.809,476.009h-1.932v-7.172h1.932
				V476.009z"/>
			<path id="XMLID_2_" style="fill:#112129;" d="M316.032,471.39l2.701-2.554h2.368l-3.479,3.375l3.501,3.797h-2.376l-2.716-2.901
				v2.901H314.1v-10.658h1.932V471.39z"/>
		</g>
		<g>
			<path style="fill:#112129;" d="M184.412,475.944v-1.055c-0.527,0.718-1.391,1.23-2.387,1.23c-1.846,0-3.149-1.406-3.149-3.706
				c0-2.256,1.289-3.721,3.149-3.721c0.952,0,1.816,0.469,2.387,1.245v-3.765h1.099v9.77H184.412z M184.412,474.025v-3.208
				c-0.395-0.615-1.245-1.143-2.124-1.143c-1.421,0-2.27,1.172-2.27,2.739c0,1.567,0.85,2.724,2.27,2.724
				C183.168,475.138,184.017,474.64,184.412,474.025z"/>
			<path style="fill:#112129;" d="M186.932,472.399c0-2.051,1.465-3.706,3.486-3.706c2.139,0,3.398,1.67,3.398,3.794v0.279h-5.727
				c0.088,1.333,1.025,2.446,2.549,2.446c0.805,0,1.626-0.322,2.182-0.893l0.527,0.718c-0.703,0.703-1.655,1.084-2.812,1.084
				C188.44,476.12,186.932,474.611,186.932,472.399z M190.403,469.602c-1.509,0-2.256,1.274-2.314,2.358h4.643
				C192.718,470.905,192.015,469.602,190.403,469.602z"/>
			<path style="fill:#112129;" d="M194.607,475.006l0.571-0.791c0.469,0.542,1.362,1.011,2.329,1.011c1.084,0,1.67-0.513,1.67-1.216
				c0-1.714-4.38-0.659-4.38-3.281c0-1.098,0.952-2.036,2.636-2.036c1.201,0,2.051,0.454,2.622,1.025l-0.513,0.762
				c-0.424-0.513-1.201-0.894-2.109-0.894c-0.967,0-1.567,0.483-1.567,1.113c0,1.552,4.38,0.527,4.38,3.281
				c0,1.187-0.952,2.138-2.783,2.138C196.306,476.12,195.325,475.768,194.607,475.006z"/>
			<path style="fill:#112129;" d="M201.477,467.126c0-0.41,0.337-0.747,0.732-0.747c0.41,0,0.747,0.337,0.747,0.747
				c0,0.41-0.337,0.732-0.747,0.732C201.814,467.858,201.477,467.536,201.477,467.126z M201.667,475.944v-7.075h1.099v7.075H201.667
				z"/>
			<path style="fill:#112129;" d="M204.582,477.76l0.556-0.82c0.586,0.703,1.289,0.967,2.3,0.967c1.172,0,2.27-0.571,2.27-2.124
				v-1.011c-0.513,0.718-1.377,1.26-2.373,1.26c-1.845,0-3.149-1.377-3.149-3.662c0-2.27,1.289-3.676,3.149-3.676
				c0.952,0,1.802,0.469,2.373,1.245v-1.069h1.098v6.87c0,2.344-1.641,3.076-3.369,3.076
				C206.237,478.815,205.417,478.58,204.582,477.76z M209.709,473.908v-3.091c-0.381-0.615-1.23-1.143-2.109-1.143
				c-1.421,0-2.27,1.128-2.27,2.695c0,1.553,0.849,2.695,2.27,2.695C208.478,475.065,209.328,474.523,209.709,473.908z"/>
			<path style="fill:#112129;" d="M217.413,475.944v-4.629c0-1.245-0.63-1.641-1.582-1.641c-0.865,0-1.685,0.527-2.095,1.099v5.17
				h-1.099v-7.075h1.099v1.025c0.498-0.586,1.464-1.201,2.519-1.201c1.48,0,2.256,0.747,2.256,2.285v4.966H217.413z"/>
			<path style="fill:#112129;" d="M219.932,472.399c0-2.051,1.465-3.706,3.486-3.706c2.139,0,3.398,1.67,3.398,3.794v0.279h-5.727
				c0.088,1.333,1.025,2.446,2.549,2.446c0.806,0,1.626-0.322,2.183-0.893l0.527,0.718c-0.703,0.703-1.655,1.084-2.812,1.084
				C221.441,476.12,219.932,474.611,219.932,472.399z M223.404,469.602c-1.509,0-2.256,1.274-2.314,2.358h4.643
				C225.718,470.905,225.015,469.602,223.404,469.602z"/>
			<path style="fill:#112129;" d="M233.35,475.944v-1.055c-0.527,0.718-1.392,1.23-2.388,1.23c-1.846,0-3.149-1.406-3.149-3.706
				c0-2.256,1.289-3.721,3.149-3.721c0.952,0,1.817,0.469,2.388,1.245v-3.765h1.098v9.77H233.35z M233.35,474.025v-3.208
				c-0.396-0.615-1.245-1.143-2.124-1.143c-1.421,0-2.27,1.172-2.27,2.739c0,1.567,0.849,2.724,2.27,2.724
				C232.105,475.138,232.954,474.64,233.35,474.025z"/>
			<path style="fill:#112129;" d="M239.692,475.944v-9.77h1.098v3.765c0.572-0.776,1.421-1.245,2.388-1.245
				c1.845,0,3.149,1.465,3.149,3.721c0,2.299-1.304,3.706-3.149,3.706c-0.996,0-1.86-0.513-2.388-1.23v1.055H239.692z
				 M242.9,475.138c1.436,0,2.285-1.157,2.285-2.724c0-1.568-0.85-2.739-2.285-2.739c-0.864,0-1.728,0.527-2.109,1.143v3.208
				C241.171,474.64,242.036,475.138,242.9,475.138z"/>
			<path style="fill:#112129;" d="M247.528,477.716c0.161,0.073,0.425,0.117,0.601,0.117c0.483,0,0.805-0.161,1.055-0.747
				l0.469-1.069l-2.959-7.148h1.187l2.358,5.801l2.344-5.801h1.201l-3.545,8.51c-0.425,1.025-1.143,1.421-2.08,1.435
				c-0.234,0-0.601-0.044-0.805-0.103L247.528,477.716z"/>
		</g>
	</g>
</g>
</svg>
